# MagicaVoxel @ Ephtracy

# material
mtllib blueballoon.mtl
usemtl palette

# normals
vn -1 0 0
vn 1 0 0
vn 0 0 1
vn 0 0 -1
vn 0 -1 0
vn 0 1 0

# texcoords
vt 0.126953 0.5
vt 0.353516 0.5
vt 0.408203 0.5
vt 0.994141 0.5

# verts
v -6 15 9
v -6 15 4
v -6 23 9
v -6 23 4
v -5 14 9
v -5 14 4
v -5 15 10
v -5 15 9
v -5 15 4
v -5 15 3
v -5 23 10
v -5 23 9
v -5 23 4
v -5 23 3
v -5 24 9
v -5 24 4
v -4 13 9
v -4 13 4
v -4 14 10
v -4 14 9
v -4 14 4
v -4 14 3
v -4 15 11
v -4 15 10
v -4 15 9
v -4 15 4
v -4 15 3
v -4 15 2
v -4 23 11
v -4 23 10
v -4 23 9
v -4 23 4
v -4 23 3
v -4 23 2
v -4 24 10
v -4 24 9
v -4 24 4
v -4 24 3
v -4 25 9
v -4 25 4
v -3 12 9
v -3 12 4
v -3 13 10
v -3 13 9
v -3 13 4
v -3 13 3
v -3 14 11
v -3 14 10
v -3 14 9
v -3 14 4
v -3 14 3
v -3 14 2
v -3 15 12
v -3 15 11
v -3 15 10
v -3 15 3
v -3 15 2
v -3 15 1
v -3 23 12
v -3 23 11
v -3 23 10
v -3 23 3
v -3 23 2
v -3 23 1
v -3 24 11
v -3 24 10
v -3 24 9
v -3 24 4
v -3 24 3
v -3 24 2
v -3 25 10
v -3 25 9
v -3 25 4
v -3 25 3
v -3 26 9
v -3 26 4
v -2 11 9
v -2 11 4
v -2 12 10
v -2 12 9
v -2 12 4
v -2 12 3
v -2 13 10
v -2 13 9
v -2 13 4
v -2 13 3
v -1 5 7
v -1 5 6
v -1 8 7
v -1 8 6
v -1 9 7
v -1 9 6
v -1 11 7
v -1 11 6
v 0 3 7
v 0 3 6
v 0 5 7
v 0 5 6
v 0 8 7
v 0 8 6
v 0 9 7
v 0 9 6
v 0 6 7
v 0 6 6
v 0 7 7
v 0 7 6
v 0 10 7
v 0 10 6
v 0 11 7
v 0 11 6
v 1 3 7
v 1 3 6
v 1 6 7
v 1 6 6
v 1 7 7
v 1 7 6
v 1 10 7
v 1 10 6
v 2 11 9
v 2 11 4
v 2 12 10
v 2 12 9
v 2 12 4
v 2 12 3
v 2 13 10
v 2 13 9
v 2 13 4
v 2 13 3
v 3 12 9
v 3 12 4
v 3 13 10
v 3 13 9
v 3 13 4
v 3 13 3
v 3 14 11
v 3 14 10
v 3 14 9
v 3 14 4
v 3 14 3
v 3 14 2
v 3 15 12
v 3 15 11
v 3 15 10
v 3 15 3
v 3 15 2
v 3 15 1
v 3 23 12
v 3 23 11
v 3 23 10
v 3 23 3
v 3 23 2
v 3 23 1
v 3 24 11
v 3 24 10
v 3 24 9
v 3 24 4
v 3 24 3
v 3 24 2
v 3 25 10
v 3 25 9
v 3 25 4
v 3 25 3
v 3 26 9
v 3 26 4
v 4 13 9
v 4 13 4
v 4 14 10
v 4 14 9
v 4 14 4
v 4 14 3
v 4 15 11
v 4 15 10
v 4 15 9
v 4 15 4
v 4 15 3
v 4 15 2
v 4 23 11
v 4 23 10
v 4 23 9
v 4 23 4
v 4 23 3
v 4 23 2
v 4 24 10
v 4 24 9
v 4 24 4
v 4 24 3
v 4 25 9
v 4 25 4
v 5 14 9
v 5 14 4
v 5 15 10
v 5 15 9
v 5 15 4
v 5 15 3
v 5 23 10
v 5 23 9
v 5 23 4
v 5 23 3
v 5 24 9
v 5 24 4
v 6 15 9
v 6 15 4
v 6 23 9
v 6 23 4
v -3 15 12
v -3 23 12
v 3 15 12
v 3 23 12
v -4 15 11
v -4 23 11
v -3 14 11
v -3 15 11
v -3 23 11
v -3 24 11
v 3 14 11
v 3 15 11
v 3 23 11
v 3 24 11
v 4 15 11
v 4 23 11
v -5 15 10
v -5 23 10
v -4 14 10
v -4 15 10
v -4 23 10
v -4 24 10
v -3 13 10
v -3 14 10
v -3 15 10
v -3 23 10
v -3 24 10
v -3 25 10
v -2 12 10
v -2 13 10
v 2 12 10
v 2 13 10
v 3 13 10
v 3 14 10
v 3 15 10
v 3 23 10
v 3 24 10
v 3 25 10
v 4 14 10
v 4 15 10
v 4 23 10
v 4 24 10
v 5 15 10
v 5 23 10
v -6 15 9
v -6 23 9
v -5 14 9
v -5 15 9
v -5 23 9
v -5 24 9
v -4 13 9
v -4 14 9
v -4 15 9
v -4 23 9
v -4 24 9
v -4 25 9
v -3 12 9
v -3 13 9
v -3 14 9
v -3 24 9
v -3 25 9
v -3 26 9
v -2 11 9
v -2 12 9
v -2 13 9
v 2 11 9
v 2 12 9
v 2 13 9
v 3 12 9
v 3 13 9
v 3 14 9
v 3 24 9
v 3 25 9
v 3 26 9
v 4 13 9
v 4 14 9
v 4 15 9
v 4 23 9
v 4 24 9
v 4 25 9
v 5 14 9
v 5 15 9
v 5 23 9
v 5 24 9
v 6 15 9
v 6 23 9
v -1 5 7
v -1 8 7
v -1 9 7
v -1 11 7
v 0 3 7
v 0 5 7
v 0 6 7
v 0 7 7
v 0 8 7
v 0 9 7
v 0 10 7
v 0 11 7
v 1 3 7
v 1 6 7
v 1 7 7
v 1 10 7
v -1 5 6
v -1 8 6
v -1 9 6
v -1 11 6
v 0 3 6
v 0 5 6
v 0 6 6
v 0 7 6
v 0 8 6
v 0 9 6
v 0 10 6
v 0 11 6
v 1 3 6
v 1 6 6
v 1 7 6
v 1 10 6
v -6 15 4
v -6 23 4
v -5 14 4
v -5 15 4
v -5 23 4
v -5 24 4
v -4 13 4
v -4 14 4
v -4 15 4
v -4 23 4
v -4 24 4
v -4 25 4
v -3 12 4
v -3 13 4
v -3 14 4
v -3 24 4
v -3 25 4
v -3 26 4
v -2 11 4
v -2 12 4
v -2 13 4
v 2 11 4
v 2 12 4
v 2 13 4
v 3 12 4
v 3 13 4
v 3 14 4
v 3 24 4
v 3 25 4
v 3 26 4
v 4 13 4
v 4 14 4
v 4 15 4
v 4 23 4
v 4 24 4
v 4 25 4
v 5 14 4
v 5 15 4
v 5 23 4
v 5 24 4
v 6 15 4
v 6 23 4
v -5 15 3
v -5 23 3
v -4 14 3
v -4 15 3
v -4 23 3
v -4 24 3
v -3 13 3
v -3 14 3
v -3 15 3
v -3 23 3
v -3 24 3
v -3 25 3
v -2 12 3
v -2 13 3
v 2 12 3
v 2 13 3
v 3 13 3
v 3 14 3
v 3 15 3
v 3 23 3
v 3 24 3
v 3 25 3
v 4 14 3
v 4 15 3
v 4 23 3
v 4 24 3
v 5 15 3
v 5 23 3
v -4 15 2
v -4 23 2
v -3 14 2
v -3 15 2
v -3 23 2
v -3 24 2
v 3 14 2
v 3 15 2
v 3 23 2
v 3 24 2
v 4 15 2
v 4 23 2
v -3 15 1
v -3 23 1
v 3 15 1
v 3 23 1
v 0 3 7
v 1 3 7
v 0 3 6
v 1 3 6
v -1 5 7
v 0 5 7
v -1 5 6
v 0 5 6
v 0 7 7
v 1 7 7
v 0 7 6
v 1 7 6
v -1 9 7
v 0 9 7
v -1 9 6
v 0 9 6
v -2 11 9
v 2 11 9
v -1 11 7
v 0 11 7
v -1 11 6
v 0 11 6
v -2 11 4
v 2 11 4
v -2 12 10
v 2 12 10
v -3 12 9
v -2 12 9
v 2 12 9
v 3 12 9
v -3 12 4
v -2 12 4
v 2 12 4
v 3 12 4
v -2 12 3
v 2 12 3
v -3 13 10
v -2 13 10
v 2 13 10
v 3 13 10
v -4 13 9
v -3 13 9
v -2 13 9
v 2 13 9
v 3 13 9
v 4 13 9
v -4 13 4
v -3 13 4
v -2 13 4
v 2 13 4
v 3 13 4
v 4 13 4
v -3 13 3
v -2 13 3
v 2 13 3
v 3 13 3
v -3 14 11
v 3 14 11
v -4 14 10
v -3 14 10
v 3 14 10
v 4 14 10
v -5 14 9
v -4 14 9
v -3 14 9
v 3 14 9
v 4 14 9
v 5 14 9
v -5 14 4
v -4 14 4
v -3 14 4
v 3 14 4
v 4 14 4
v 5 14 4
v -4 14 3
v -3 14 3
v 3 14 3
v 4 14 3
v -3 14 2
v 3 14 2
v -3 15 12
v 3 15 12
v -4 15 11
v -3 15 11
v 3 15 11
v 4 15 11
v -5 15 10
v -4 15 10
v -3 15 10
v 3 15 10
v 4 15 10
v 5 15 10
v -6 15 9
v -5 15 9
v -4 15 9
v 4 15 9
v 5 15 9
v 6 15 9
v -6 15 4
v -5 15 4
v -4 15 4
v 4 15 4
v 5 15 4
v 6 15 4
v -5 15 3
v -4 15 3
v -3 15 3
v 3 15 3
v 4 15 3
v 5 15 3
v -4 15 2
v -3 15 2
v 3 15 2
v 4 15 2
v -3 15 1
v 3 15 1
v 0 6 7
v 1 6 7
v 0 6 6
v 1 6 6
v -1 8 7
v 0 8 7
v -1 8 6
v 0 8 6
v 0 10 7
v 1 10 7
v 0 10 6
v 1 10 6
v -3 23 12
v 3 23 12
v -4 23 11
v -3 23 11
v 3 23 11
v 4 23 11
v -5 23 10
v -4 23 10
v -3 23 10
v 3 23 10
v 4 23 10
v 5 23 10
v -6 23 9
v -5 23 9
v -4 23 9
v 4 23 9
v 5 23 9
v 6 23 9
v -6 23 4
v -5 23 4
v -4 23 4
v 4 23 4
v 5 23 4
v 6 23 4
v -5 23 3
v -4 23 3
v -3 23 3
v 3 23 3
v 4 23 3
v 5 23 3
v -4 23 2
v -3 23 2
v 3 23 2
v 4 23 2
v -3 23 1
v 3 23 1
v -3 24 11
v 3 24 11
v -4 24 10
v -3 24 10
v 3 24 10
v 4 24 10
v -5 24 9
v -4 24 9
v -3 24 9
v 3 24 9
v 4 24 9
v 5 24 9
v -5 24 4
v -4 24 4
v -3 24 4
v 3 24 4
v 4 24 4
v 5 24 4
v -4 24 3
v -3 24 3
v 3 24 3
v 4 24 3
v -3 24 2
v 3 24 2
v -3 25 10
v 3 25 10
v -4 25 9
v -3 25 9
v 3 25 9
v 4 25 9
v -4 25 4
v -3 25 4
v 3 25 4
v 4 25 4
v -3 25 3
v 3 25 3
v -3 26 9
v 3 26 9
v -3 26 4
v 3 26 4

# faces
f 3/2/1 2/2/1 1/2/1
f 4/2/1 2/2/1 3/2/1
f 8/2/1 6/2/1 5/2/1
f 9/2/1 6/2/1 8/2/1
f 11/2/1 8/2/1 7/2/1
f 12/2/1 8/2/1 11/2/1
f 13/2/1 10/2/1 9/2/1
f 14/2/1 10/2/1 13/2/1
f 15/2/1 13/2/1 12/2/1
f 16/2/1 13/2/1 15/2/1
f 20/2/1 18/2/1 17/2/1
f 21/2/1 18/2/1 20/2/1
f 24/2/1 20/2/1 19/2/1
f 25/2/1 20/2/1 24/2/1
f 26/2/1 22/2/1 21/2/1
f 27/2/1 22/2/1 26/2/1
f 29/2/1 24/2/1 23/2/1
f 30/2/1 24/2/1 29/2/1
f 33/2/1 28/2/1 27/2/1
f 34/2/1 28/2/1 33/2/1
f 35/2/1 31/2/1 30/2/1
f 36/2/1 31/2/1 35/2/1
f 37/2/1 33/2/1 32/2/1
f 38/2/1 33/2/1 37/2/1
f 39/2/1 37/2/1 36/2/1
f 40/2/1 37/2/1 39/2/1
f 44/2/1 42/2/1 41/2/1
f 45/2/1 42/2/1 44/2/1
f 48/2/1 44/2/1 43/2/1
f 49/2/1 44/2/1 48/2/1
f 50/2/1 46/2/1 45/2/1
f 51/2/1 46/2/1 50/2/1
f 54/2/1 48/2/1 47/2/1
f 55/2/1 48/2/1 54/2/1
f 56/2/1 52/2/1 51/2/1
f 57/2/1 52/2/1 56/2/1
f 59/2/1 54/2/1 53/2/1
f 60/2/1 54/2/1 59/2/1
f 63/2/1 58/2/1 57/2/1
f 64/2/1 58/2/1 63/2/1
f 65/2/1 61/2/1 60/2/1
f 66/2/1 61/2/1 65/2/1
f 69/2/1 63/2/1 62/2/1
f 70/2/1 63/2/1 69/2/1
f 71/2/1 67/2/1 66/2/1
f 72/2/1 67/2/1 71/2/1
f 73/2/1 69/2/1 68/2/1
f 74/2/1 69/2/1 73/2/1
f 75/2/1 73/2/1 72/2/1
f 76/2/1 73/2/1 75/2/1
f 80/2/1 78/2/1 77/2/1
f 81/2/1 78/2/1 80/2/1
f 83/2/1 80/2/1 79/2/1
f 84/2/1 80/2/1 83/2/1
f 85/2/1 82/2/1 81/2/1
f 86/2/1 82/2/1 85/2/1
f 89/4/1 88/4/1 87/4/1
f 90/4/1 88/4/1 89/4/1
f 93/4/1 92/4/1 91/4/1
f 94/4/1 92/4/1 93/4/1
f 97/4/1 96/4/1 95/4/1
f 98/4/1 96/4/1 97/4/1
f 101/4/1 100/4/1 99/4/1
f 102/4/1 100/4/1 101/4/1
f 103/4/2 104/4/2 105/4/2
f 105/4/2 104/4/2 106/4/2
f 107/4/2 108/4/2 109/4/2
f 109/4/2 108/4/2 110/4/2
f 111/4/2 112/4/2 113/4/2
f 113/4/2 112/4/2 114/4/2
f 115/4/2 116/4/2 117/4/2
f 117/4/2 116/4/2 118/4/2
f 119/2/2 120/2/2 122/2/2
f 122/2/2 120/2/2 123/2/2
f 121/2/2 122/2/2 125/2/2
f 125/2/2 122/2/2 126/2/2
f 123/2/2 124/2/2 127/2/2
f 127/2/2 124/2/2 128/2/2
f 129/2/2 130/2/2 132/2/2
f 132/2/2 130/2/2 133/2/2
f 131/2/2 132/2/2 136/2/2
f 136/2/2 132/2/2 137/2/2
f 133/2/2 134/2/2 138/2/2
f 138/2/2 134/2/2 139/2/2
f 135/2/2 136/2/2 142/2/2
f 142/2/2 136/2/2 143/2/2
f 139/2/2 140/2/2 144/2/2
f 144/2/2 140/2/2 145/2/2
f 141/2/2 142/2/2 147/2/2
f 147/2/2 142/2/2 148/2/2
f 145/2/2 146/2/2 151/2/2
f 151/2/2 146/2/2 152/2/2
f 148/2/2 149/2/2 153/2/2
f 153/2/2 149/2/2 154/2/2
f 150/2/2 151/2/2 157/2/2
f 157/2/2 151/2/2 158/2/2
f 154/2/2 155/2/2 159/2/2
f 159/2/2 155/2/2 160/2/2
f 156/2/2 157/2/2 161/2/2
f 161/2/2 157/2/2 162/2/2
f 160/2/2 161/2/2 163/2/2
f 163/2/2 161/2/2 164/2/2
f 165/2/2 166/2/2 168/2/2
f 168/2/2 166/2/2 169/2/2
f 167/2/2 168/2/2 172/2/2
f 172/2/2 168/2/2 173/2/2
f 169/2/2 170/2/2 174/2/2
f 174/2/2 170/2/2 175/2/2
f 171/2/2 172/2/2 177/2/2
f 177/2/2 172/2/2 178/2/2
f 175/2/2 176/2/2 181/2/2
f 181/2/2 176/2/2 182/2/2
f 178/2/2 179/2/2 183/2/2
f 183/2/2 179/2/2 184/2/2
f 180/2/2 181/2/2 185/2/2
f 185/2/2 181/2/2 186/2/2
f 184/2/2 185/2/2 187/2/2
f 187/2/2 185/2/2 188/2/2
f 189/2/2 190/2/2 192/2/2
f 192/2/2 190/2/2 193/2/2
f 191/2/2 192/2/2 195/2/2
f 195/2/2 192/2/2 196/2/2
f 193/2/2 194/2/2 197/2/2
f 197/2/2 194/2/2 198/2/2
f 196/2/2 197/2/2 199/2/2
f 199/2/2 197/2/2 200/2/2
f 201/2/2 202/2/2 203/2/2
f 203/2/2 202/2/2 204/2/2
f 207/2/3 206/2/3 205/2/3
f 208/2/3 206/2/3 207/2/3
f 212/2/3 210/2/3 209/2/3
f 213/2/3 210/2/3 212/2/3
f 215/2/3 212/2/3 211/2/3
f 216/2/3 212/2/3 215/2/3
f 217/2/3 214/2/3 213/2/3
f 218/2/3 214/2/3 217/2/3
f 219/2/3 217/2/3 216/2/3
f 220/2/3 217/2/3 219/2/3
f 224/2/3 222/2/3 221/2/3
f 225/2/3 222/2/3 224/2/3
f 228/2/3 224/2/3 223/2/3
f 229/2/3 224/2/3 228/2/3
f 230/2/3 226/2/3 225/2/3
f 231/2/3 226/2/3 230/2/3
f 234/2/3 228/2/3 227/2/3
f 235/2/3 234/2/3 233/2/3
f 236/2/3 228/2/3 234/2/3
f 236/2/3 234/2/3 235/2/3
f 237/2/3 228/2/3 236/2/3
f 238/2/3 228/2/3 237/2/3
f 241/2/3 232/2/3 231/2/3
f 242/2/3 232/2/3 241/2/3
f 243/2/3 239/2/3 238/2/3
f 244/2/3 239/2/3 243/2/3
f 245/2/3 241/2/3 240/2/3
f 246/2/3 241/2/3 245/2/3
f 247/2/3 245/2/3 244/2/3
f 248/2/3 245/2/3 247/2/3
f 252/2/3 250/2/3 249/2/3
f 253/2/3 250/2/3 252/2/3
f 256/2/3 252/2/3 251/2/3
f 257/2/3 252/2/3 256/2/3
f 258/2/3 254/2/3 253/2/3
f 259/2/3 254/2/3 258/2/3
f 262/2/3 256/2/3 255/2/3
f 263/2/3 256/2/3 262/2/3
f 264/2/3 260/2/3 259/2/3
f 265/2/3 260/2/3 264/2/3
f 268/2/3 262/2/3 261/2/3
f 269/2/3 262/2/3 268/2/3
f 270/2/3 268/2/3 267/2/3
f 271/2/3 268/2/3 270/2/3
f 273/2/3 272/2/3 271/2/3
f 274/2/3 272/2/3 273/2/3
f 277/2/3 266/2/3 265/2/3
f 278/2/3 266/2/3 277/2/3
f 279/2/3 275/2/3 274/2/3
f 280/2/3 275/2/3 279/2/3
f 283/2/3 277/2/3 276/2/3
f 284/2/3 277/2/3 283/2/3
f 285/2/3 281/2/3 280/2/3
f 286/2/3 281/2/3 285/2/3
f 287/2/3 283/2/3 282/2/3
f 288/2/3 283/2/3 287/2/3
f 289/2/3 287/2/3 286/2/3
f 290/2/3 287/2/3 289/2/3
f 296/4/3 292/4/3 291/4/3
f 297/4/3 292/4/3 296/4/3
f 298/4/3 292/4/3 297/4/3
f 299/4/3 292/4/3 298/4/3
f 300/4/3 294/4/3 293/4/3
f 301/4/3 294/4/3 300/4/3
f 302/4/3 294/4/3 301/4/3
f 303/4/3 296/4/3 295/4/3
f 303/4/3 297/4/3 296/4/3
f 304/4/3 297/4/3 303/4/3
f 305/4/3 299/4/3 298/4/3
f 305/4/3 301/4/3 300/4/3
f 305/4/3 300/4/3 299/4/3
f 306/4/3 301/4/3 305/4/3
f 307/4/4 308/4/4 312/4/4
f 312/4/4 308/4/4 313/4/4
f 313/4/4 308/4/4 314/4/4
f 314/4/4 308/4/4 315/4/4
f 309/4/4 310/4/4 316/4/4
f 316/4/4 310/4/4 317/4/4
f 317/4/4 310/4/4 318/4/4
f 311/4/4 312/4/4 319/4/4
f 312/4/4 313/4/4 319/4/4
f 319/4/4 313/4/4 320/4/4
f 314/4/4 315/4/4 321/4/4
f 316/4/4 317/4/4 321/4/4
f 315/4/4 316/4/4 321/4/4
f 321/4/4 317/4/4 322/4/4
f 323/2/4 324/2/4 326/2/4
f 326/2/4 324/2/4 327/2/4
f 325/2/4 326/2/4 330/2/4
f 330/2/4 326/2/4 331/2/4
f 327/2/4 328/2/4 332/2/4
f 332/2/4 328/2/4 333/2/4
f 329/2/4 330/2/4 336/2/4
f 336/2/4 330/2/4 337/2/4
f 333/2/4 334/2/4 338/2/4
f 338/2/4 334/2/4 339/2/4
f 335/2/4 336/2/4 342/2/4
f 342/2/4 336/2/4 343/2/4
f 341/2/4 342/2/4 344/2/4
f 344/2/4 342/2/4 345/2/4
f 345/2/4 346/2/4 347/2/4
f 347/2/4 346/2/4 348/2/4
f 339/2/4 340/2/4 351/2/4
f 351/2/4 340/2/4 352/2/4
f 348/2/4 349/2/4 353/2/4
f 353/2/4 349/2/4 354/2/4
f 350/2/4 351/2/4 357/2/4
f 357/2/4 351/2/4 358/2/4
f 354/2/4 355/2/4 359/2/4
f 359/2/4 355/2/4 360/2/4
f 356/2/4 357/2/4 361/2/4
f 361/2/4 357/2/4 362/2/4
f 360/2/4 361/2/4 363/2/4
f 363/2/4 361/2/4 364/2/4
f 365/2/4 366/2/4 368/2/4
f 368/2/4 366/2/4 369/2/4
f 367/2/4 368/2/4 372/2/4
f 372/2/4 368/2/4 373/2/4
f 369/2/4 370/2/4 374/2/4
f 374/2/4 370/2/4 375/2/4
f 371/2/4 372/2/4 378/2/4
f 377/2/4 378/2/4 379/2/4
f 378/2/4 372/2/4 380/2/4
f 379/2/4 378/2/4 380/2/4
f 380/2/4 372/2/4 381/2/4
f 381/2/4 372/2/4 382/2/4
f 375/2/4 376/2/4 385/2/4
f 385/2/4 376/2/4 386/2/4
f 382/2/4 383/2/4 387/2/4
f 387/2/4 383/2/4 388/2/4
f 384/2/4 385/2/4 389/2/4
f 389/2/4 385/2/4 390/2/4
f 388/2/4 389/2/4 391/2/4
f 391/2/4 389/2/4 392/2/4
f 393/2/4 394/2/4 396/2/4
f 396/2/4 394/2/4 397/2/4
f 395/2/4 396/2/4 399/2/4
f 399/2/4 396/2/4 400/2/4
f 397/2/4 398/2/4 401/2/4
f 401/2/4 398/2/4 402/2/4
f 400/2/4 401/2/4 403/2/4
f 403/2/4 401/2/4 404/2/4
f 405/2/4 406/2/4 407/2/4
f 407/2/4 406/2/4 408/2/4
f 411/4/5 410/4/5 409/4/5
f 412/4/5 410/4/5 411/4/5
f 415/4/5 414/4/5 413/4/5
f 416/4/5 414/4/5 415/4/5
f 419/4/5 418/4/5 417/4/5
f 420/4/5 418/4/5 419/4/5
f 423/4/5 422/4/5 421/4/5
f 424/4/5 422/4/5 423/4/5
f 427/2/5 426/2/5 425/2/5
f 428/2/5 426/2/5 427/2/5
f 429/2/5 427/2/5 425/2/5
f 430/2/5 426/2/5 428/2/5
f 431/2/5 429/2/5 425/2/5
f 431/2/5 430/2/5 429/2/5
f 432/2/5 426/2/5 430/2/5
f 432/2/5 430/2/5 431/2/5
f 436/2/5 434/2/5 433/2/5
f 437/2/5 434/2/5 436/2/5
f 439/2/5 436/2/5 435/2/5
f 440/2/5 436/2/5 439/2/5
f 441/2/5 438/2/5 437/2/5
f 442/2/5 438/2/5 441/2/5
f 443/2/5 441/2/5 440/2/5
f 444/2/5 441/2/5 443/2/5
f 450/2/5 446/2/5 445/2/5
f 451/2/5 446/2/5 450/2/5
f 452/2/5 448/2/5 447/2/5
f 453/2/5 448/2/5 452/2/5
f 455/2/5 450/2/5 449/2/5
f 456/2/5 450/2/5 455/2/5
f 459/2/5 454/2/5 453/2/5
f 460/2/5 454/2/5 459/2/5
f 461/2/5 457/2/5 456/2/5
f 462/2/5 457/2/5 461/2/5
f 463/2/5 459/2/5 458/2/5
f 464/2/5 459/2/5 463/2/5
f 468/2/5 466/2/5 465/2/5
f 469/2/5 466/2/5 468/2/5
f 472/2/5 468/2/5 467/2/5
f 473/2/5 468/2/5 472/2/5
f 474/2/5 470/2/5 469/2/5
f 475/2/5 470/2/5 474/2/5
f 477/2/5 472/2/5 471/2/5
f 478/2/5 472/2/5 477/2/5
f 481/2/5 476/2/5 475/2/5
f 482/2/5 476/2/5 481/2/5
f 483/2/5 479/2/5 478/2/5
f 484/2/5 479/2/5 483/2/5
f 485/2/5 481/2/5 480/2/5
f 486/2/5 481/2/5 485/2/5
f 487/2/5 485/2/5 484/2/5
f 488/2/5 485/2/5 487/2/5
f 492/2/5 490/2/5 489/2/5
f 493/2/5 490/2/5 492/2/5
f 496/2/5 492/2/5 491/2/5
f 497/2/5 492/2/5 496/2/5
f 498/2/5 494/2/5 493/2/5
f 499/2/5 494/2/5 498/2/5
f 502/2/5 496/2/5 495/2/5
f 503/2/5 496/2/5 502/2/5
f 504/2/5 500/2/5 499/2/5
f 505/2/5 500/2/5 504/2/5
f 507/2/5 502/2/5 501/2/5
f 508/2/5 502/2/5 507/2/5
f 511/2/5 506/2/5 505/2/5
f 512/2/5 506/2/5 511/2/5
f 513/2/5 509/2/5 508/2/5
f 514/2/5 509/2/5 513/2/5
f 517/2/5 511/2/5 510/2/5
f 518/2/5 511/2/5 517/2/5
f 519/2/5 515/2/5 514/2/5
f 520/2/5 515/2/5 519/2/5
f 521/2/5 517/2/5 516/2/5
f 522/2/5 517/2/5 521/2/5
f 523/2/5 521/2/5 520/2/5
f 524/2/5 521/2/5 523/2/5
f 525/4/6 526/4/6 527/4/6
f 527/4/6 526/4/6 528/4/6
f 529/4/6 530/4/6 531/4/6
f 531/4/6 530/4/6 532/4/6
f 533/4/6 534/4/6 535/4/6
f 535/4/6 534/4/6 536/4/6
f 537/2/6 538/2/6 540/2/6
f 540/2/6 538/2/6 541/2/6
f 539/2/6 540/2/6 544/2/6
f 544/2/6 540/2/6 545/2/6
f 541/2/6 542/2/6 546/2/6
f 546/2/6 542/2/6 547/2/6
f 543/2/6 544/2/6 550/2/6
f 550/2/6 544/2/6 551/2/6
f 547/2/6 548/2/6 552/2/6
f 552/2/6 548/2/6 553/2/6
f 549/2/6 550/2/6 555/2/6
f 555/2/6 550/2/6 556/2/6
f 553/2/6 554/2/6 559/2/6
f 559/2/6 554/2/6 560/2/6
f 556/2/6 557/2/6 561/2/6
f 561/2/6 557/2/6 562/2/6
f 558/2/6 559/2/6 565/2/6
f 565/2/6 559/2/6 566/2/6
f 562/2/6 563/2/6 567/2/6
f 567/2/6 563/2/6 568/2/6
f 564/2/6 565/2/6 569/2/6
f 569/2/6 565/2/6 570/2/6
f 568/2/6 569/2/6 571/2/6
f 571/2/6 569/2/6 572/2/6
f 573/2/6 574/2/6 576/2/6
f 576/2/6 574/2/6 577/2/6
f 575/2/6 576/2/6 580/2/6
f 580/2/6 576/2/6 581/2/6
f 577/2/6 578/2/6 582/2/6
f 582/2/6 578/2/6 583/2/6
f 579/2/6 580/2/6 585/2/6
f 585/2/6 580/2/6 586/2/6
f 583/2/6 584/2/6 589/2/6
f 589/2/6 584/2/6 590/2/6
f 586/2/6 587/2/6 591/2/6
f 591/2/6 587/2/6 592/2/6
f 588/2/6 589/2/6 593/2/6
f 593/2/6 589/2/6 594/2/6
f 592/2/6 593/2/6 595/2/6
f 595/2/6 593/2/6 596/2/6
f 597/2/6 598/2/6 600/2/6
f 600/2/6 598/2/6 601/2/6
f 599/2/6 600/2/6 603/2/6
f 603/2/6 600/2/6 604/2/6
f 601/2/6 602/2/6 605/2/6
f 605/2/6 602/2/6 606/2/6
f 604/2/6 605/2/6 607/2/6
f 607/2/6 605/2/6 608/2/6
f 609/2/6 610/2/6 611/2/6
f 611/2/6 610/2/6 612/2/6
