# MagicaVoxel @ Ephtracy

# material
mtllib purpleballoon.mtl
usemtl palette

# normals
vn -1 0 0
vn 1 0 0
vn 0 0 1
vn 0 0 -1
vn 0 -1 0
vn 0 1 0

# texcoords
vt 0.408203 0.5
vt 0.994141 0.5

# verts
v -6 15 9
v -6 15 4
v -6 23 9
v -6 23 4
v -5 14 9
v -5 14 4
v -5 15 10
v -5 15 9
v -5 15 4
v -5 15 3
v -5 23 10
v -5 23 9
v -5 23 4
v -5 23 3
v -5 24 9
v -5 24 4
v -4 13 9
v -4 13 4
v -4 14 10
v -4 14 9
v -4 14 4
v -4 14 3
v -4 15 11
v -4 15 10
v -4 15 9
v -4 15 4
v -4 15 3
v -4 15 2
v -4 23 11
v -4 23 10
v -4 23 9
v -4 23 4
v -4 23 3
v -4 23 2
v -4 24 10
v -4 24 9
v -4 24 4
v -4 24 3
v -4 25 9
v -4 25 4
v -3 12 9
v -3 12 4
v -3 13 10
v -3 13 9
v -3 13 4
v -3 13 3
v -3 14 11
v -3 14 10
v -3 14 9
v -3 14 4
v -3 14 3
v -3 14 2
v -3 15 12
v -3 15 11
v -3 15 10
v -3 15 3
v -3 15 2
v -3 15 1
v -3 23 12
v -3 23 11
v -3 23 10
v -3 23 3
v -3 23 2
v -3 23 1
v -3 24 11
v -3 24 10
v -3 24 9
v -3 24 4
v -3 24 3
v -3 24 2
v -3 25 10
v -3 25 9
v -3 25 4
v -3 25 3
v -3 26 9
v -3 26 4
v -2 11 9
v -2 11 4
v -2 12 10
v -2 12 9
v -2 12 4
v -2 12 3
v -2 13 10
v -2 13 9
v -2 13 4
v -2 13 3
v -1 5 7
v -1 5 6
v -1 8 7
v -1 8 6
v -1 9 7
v -1 9 6
v -1 11 7
v -1 11 6
v 0 3 7
v 0 3 6
v 0 5 7
v 0 5 6
v 0 8 7
v 0 8 6
v 0 9 7
v 0 9 6
v 0 6 7
v 0 6 6
v 0 7 7
v 0 7 6
v 0 10 7
v 0 10 6
v 0 11 7
v 0 11 6
v 1 3 7
v 1 3 6
v 1 6 7
v 1 6 6
v 1 7 7
v 1 7 6
v 1 10 7
v 1 10 6
v 2 11 9
v 2 11 4
v 2 12 10
v 2 12 9
v 2 12 4
v 2 12 3
v 2 13 10
v 2 13 9
v 2 13 4
v 2 13 3
v 3 12 9
v 3 12 4
v 3 13 10
v 3 13 9
v 3 13 4
v 3 13 3
v 3 14 11
v 3 14 10
v 3 14 9
v 3 14 4
v 3 14 3
v 3 14 2
v 3 15 12
v 3 15 11
v 3 15 10
v 3 15 3
v 3 15 2
v 3 15 1
v 3 23 12
v 3 23 11
v 3 23 10
v 3 23 3
v 3 23 2
v 3 23 1
v 3 24 11
v 3 24 10
v 3 24 9
v 3 24 4
v 3 24 3
v 3 24 2
v 3 25 10
v 3 25 9
v 3 25 4
v 3 25 3
v 3 26 9
v 3 26 4
v 4 13 9
v 4 13 4
v 4 14 10
v 4 14 9
v 4 14 4
v 4 14 3
v 4 15 11
v 4 15 10
v 4 15 9
v 4 15 4
v 4 15 3
v 4 15 2
v 4 23 11
v 4 23 10
v 4 23 9
v 4 23 4
v 4 23 3
v 4 23 2
v 4 24 10
v 4 24 9
v 4 24 4
v 4 24 3
v 4 25 9
v 4 25 4
v 5 14 9
v 5 14 4
v 5 15 10
v 5 15 9
v 5 15 4
v 5 15 3
v 5 23 10
v 5 23 9
v 5 23 4
v 5 23 3
v 5 24 9
v 5 24 4
v 6 15 9
v 6 15 4
v 6 23 9
v 6 23 4
v -3 15 12
v -3 23 12
v 3 15 12
v 3 23 12
v -4 15 11
v -4 23 11
v -3 14 11
v -3 15 11
v -3 23 11
v -3 24 11
v 3 14 11
v 3 15 11
v 3 23 11
v 3 24 11
v 4 15 11
v 4 23 11
v -5 15 10
v -5 23 10
v -4 14 10
v -4 15 10
v -4 23 10
v -4 24 10
v -3 13 10
v -3 14 10
v -3 15 10
v -3 23 10
v -3 24 10
v -3 25 10
v -2 12 10
v -2 13 10
v 2 12 10
v 2 13 10
v 3 13 10
v 3 14 10
v 3 15 10
v 3 23 10
v 3 24 10
v 3 25 10
v 4 14 10
v 4 15 10
v 4 23 10
v 4 24 10
v 5 15 10
v 5 23 10
v -6 15 9
v -6 23 9
v -5 14 9
v -5 15 9
v -5 23 9
v -5 24 9
v -4 13 9
v -4 14 9
v -4 15 9
v -4 23 9
v -4 24 9
v -4 25 9
v -3 12 9
v -3 13 9
v -3 14 9
v -3 24 9
v -3 25 9
v -3 26 9
v -2 11 9
v -2 12 9
v -2 13 9
v 2 11 9
v 2 12 9
v 2 13 9
v 3 12 9
v 3 13 9
v 3 14 9
v 3 24 9
v 3 25 9
v 3 26 9
v 4 13 9
v 4 14 9
v 4 15 9
v 4 23 9
v 4 24 9
v 4 25 9
v 5 14 9
v 5 15 9
v 5 23 9
v 5 24 9
v 6 15 9
v 6 23 9
v -1 5 7
v -1 8 7
v -1 9 7
v -1 11 7
v 0 3 7
v 0 5 7
v 0 6 7
v 0 7 7
v 0 8 7
v 0 9 7
v 0 10 7
v 0 11 7
v 1 3 7
v 1 6 7
v 1 7 7
v 1 10 7
v -1 5 6
v -1 8 6
v -1 9 6
v -1 11 6
v 0 3 6
v 0 5 6
v 0 6 6
v 0 7 6
v 0 8 6
v 0 9 6
v 0 10 6
v 0 11 6
v 1 3 6
v 1 6 6
v 1 7 6
v 1 10 6
v -6 15 4
v -6 23 4
v -5 14 4
v -5 15 4
v -5 23 4
v -5 24 4
v -4 13 4
v -4 14 4
v -4 15 4
v -4 23 4
v -4 24 4
v -4 25 4
v -3 12 4
v -3 13 4
v -3 14 4
v -3 24 4
v -3 25 4
v -3 26 4
v -2 11 4
v -2 12 4
v -2 13 4
v 2 11 4
v 2 12 4
v 2 13 4
v 3 12 4
v 3 13 4
v 3 14 4
v 3 24 4
v 3 25 4
v 3 26 4
v 4 13 4
v 4 14 4
v 4 15 4
v 4 23 4
v 4 24 4
v 4 25 4
v 5 14 4
v 5 15 4
v 5 23 4
v 5 24 4
v 6 15 4
v 6 23 4
v -5 15 3
v -5 23 3
v -4 14 3
v -4 15 3
v -4 23 3
v -4 24 3
v -3 13 3
v -3 14 3
v -3 15 3
v -3 23 3
v -3 24 3
v -3 25 3
v -2 12 3
v -2 13 3
v 2 12 3
v 2 13 3
v 3 13 3
v 3 14 3
v 3 15 3
v 3 23 3
v 3 24 3
v 3 25 3
v 4 14 3
v 4 15 3
v 4 23 3
v 4 24 3
v 5 15 3
v 5 23 3
v -4 15 2
v -4 23 2
v -3 14 2
v -3 15 2
v -3 23 2
v -3 24 2
v 3 14 2
v 3 15 2
v 3 23 2
v 3 24 2
v 4 15 2
v 4 23 2
v -3 15 1
v -3 23 1
v 3 15 1
v 3 23 1
v 0 3 7
v 1 3 7
v 0 3 6
v 1 3 6
v -1 5 7
v 0 5 7
v -1 5 6
v 0 5 6
v 0 7 7
v 1 7 7
v 0 7 6
v 1 7 6
v -1 9 7
v 0 9 7
v -1 9 6
v 0 9 6
v -2 11 9
v 2 11 9
v -1 11 7
v 0 11 7
v -1 11 6
v 0 11 6
v -2 11 4
v 2 11 4
v -2 12 10
v 2 12 10
v -3 12 9
v -2 12 9
v 2 12 9
v 3 12 9
v -3 12 4
v -2 12 4
v 2 12 4
v 3 12 4
v -2 12 3
v 2 12 3
v -3 13 10
v -2 13 10
v 2 13 10
v 3 13 10
v -4 13 9
v -3 13 9
v -2 13 9
v 2 13 9
v 3 13 9
v 4 13 9
v -4 13 4
v -3 13 4
v -2 13 4
v 2 13 4
v 3 13 4
v 4 13 4
v -3 13 3
v -2 13 3
v 2 13 3
v 3 13 3
v -3 14 11
v 3 14 11
v -4 14 10
v -3 14 10
v 3 14 10
v 4 14 10
v -5 14 9
v -4 14 9
v -3 14 9
v 3 14 9
v 4 14 9
v 5 14 9
v -5 14 4
v -4 14 4
v -3 14 4
v 3 14 4
v 4 14 4
v 5 14 4
v -4 14 3
v -3 14 3
v 3 14 3
v 4 14 3
v -3 14 2
v 3 14 2
v -3 15 12
v 3 15 12
v -4 15 11
v -3 15 11
v 3 15 11
v 4 15 11
v -5 15 10
v -4 15 10
v -3 15 10
v 3 15 10
v 4 15 10
v 5 15 10
v -6 15 9
v -5 15 9
v -4 15 9
v 4 15 9
v 5 15 9
v 6 15 9
v -6 15 4
v -5 15 4
v -4 15 4
v 4 15 4
v 5 15 4
v 6 15 4
v -5 15 3
v -4 15 3
v -3 15 3
v 3 15 3
v 4 15 3
v 5 15 3
v -4 15 2
v -3 15 2
v 3 15 2
v 4 15 2
v -3 15 1
v 3 15 1
v 0 6 7
v 1 6 7
v 0 6 6
v 1 6 6
v -1 8 7
v 0 8 7
v -1 8 6
v 0 8 6
v 0 10 7
v 1 10 7
v 0 10 6
v 1 10 6
v -3 23 12
v 3 23 12
v -4 23 11
v -3 23 11
v 3 23 11
v 4 23 11
v -5 23 10
v -4 23 10
v -3 23 10
v 3 23 10
v 4 23 10
v 5 23 10
v -6 23 9
v -5 23 9
v -4 23 9
v 4 23 9
v 5 23 9
v 6 23 9
v -6 23 4
v -5 23 4
v -4 23 4
v 4 23 4
v 5 23 4
v 6 23 4
v -5 23 3
v -4 23 3
v -3 23 3
v 3 23 3
v 4 23 3
v 5 23 3
v -4 23 2
v -3 23 2
v 3 23 2
v 4 23 2
v -3 23 1
v 3 23 1
v -3 24 11
v 3 24 11
v -4 24 10
v -3 24 10
v 3 24 10
v 4 24 10
v -5 24 9
v -4 24 9
v -3 24 9
v 3 24 9
v 4 24 9
v 5 24 9
v -5 24 4
v -4 24 4
v -3 24 4
v 3 24 4
v 4 24 4
v 5 24 4
v -4 24 3
v -3 24 3
v 3 24 3
v 4 24 3
v -3 24 2
v 3 24 2
v -3 25 10
v 3 25 10
v -4 25 9
v -3 25 9
v 3 25 9
v 4 25 9
v -4 25 4
v -3 25 4
v 3 25 4
v 4 25 4
v -3 25 3
v 3 25 3
v -3 26 9
v 3 26 9
v -3 26 4
v 3 26 4

# faces
f 3/1/1 2/1/1 1/1/1
f 4/1/1 2/1/1 3/1/1
f 8/1/1 6/1/1 5/1/1
f 9/1/1 6/1/1 8/1/1
f 11/1/1 8/1/1 7/1/1
f 12/1/1 8/1/1 11/1/1
f 13/1/1 10/1/1 9/1/1
f 14/1/1 10/1/1 13/1/1
f 15/1/1 13/1/1 12/1/1
f 16/1/1 13/1/1 15/1/1
f 20/1/1 18/1/1 17/1/1
f 21/1/1 18/1/1 20/1/1
f 24/1/1 20/1/1 19/1/1
f 25/1/1 20/1/1 24/1/1
f 26/1/1 22/1/1 21/1/1
f 27/1/1 22/1/1 26/1/1
f 29/1/1 24/1/1 23/1/1
f 30/1/1 24/1/1 29/1/1
f 33/1/1 28/1/1 27/1/1
f 34/1/1 28/1/1 33/1/1
f 35/1/1 31/1/1 30/1/1
f 36/1/1 31/1/1 35/1/1
f 37/1/1 33/1/1 32/1/1
f 38/1/1 33/1/1 37/1/1
f 39/1/1 37/1/1 36/1/1
f 40/1/1 37/1/1 39/1/1
f 44/1/1 42/1/1 41/1/1
f 45/1/1 42/1/1 44/1/1
f 48/1/1 44/1/1 43/1/1
f 49/1/1 44/1/1 48/1/1
f 50/1/1 46/1/1 45/1/1
f 51/1/1 46/1/1 50/1/1
f 54/1/1 48/1/1 47/1/1
f 55/1/1 48/1/1 54/1/1
f 56/1/1 52/1/1 51/1/1
f 57/1/1 52/1/1 56/1/1
f 59/1/1 54/1/1 53/1/1
f 60/1/1 54/1/1 59/1/1
f 63/1/1 58/1/1 57/1/1
f 64/1/1 58/1/1 63/1/1
f 65/1/1 61/1/1 60/1/1
f 66/1/1 61/1/1 65/1/1
f 69/1/1 63/1/1 62/1/1
f 70/1/1 63/1/1 69/1/1
f 71/1/1 67/1/1 66/1/1
f 72/1/1 67/1/1 71/1/1
f 73/1/1 69/1/1 68/1/1
f 74/1/1 69/1/1 73/1/1
f 75/1/1 73/1/1 72/1/1
f 76/1/1 73/1/1 75/1/1
f 80/1/1 78/1/1 77/1/1
f 81/1/1 78/1/1 80/1/1
f 83/1/1 80/1/1 79/1/1
f 84/1/1 80/1/1 83/1/1
f 85/1/1 82/1/1 81/1/1
f 86/1/1 82/1/1 85/1/1
f 89/2/1 88/2/1 87/2/1
f 90/2/1 88/2/1 89/2/1
f 93/2/1 92/2/1 91/2/1
f 94/2/1 92/2/1 93/2/1
f 97/2/1 96/2/1 95/2/1
f 98/2/1 96/2/1 97/2/1
f 101/2/1 100/2/1 99/2/1
f 102/2/1 100/2/1 101/2/1
f 103/2/2 104/2/2 105/2/2
f 105/2/2 104/2/2 106/2/2
f 107/2/2 108/2/2 109/2/2
f 109/2/2 108/2/2 110/2/2
f 111/2/2 112/2/2 113/2/2
f 113/2/2 112/2/2 114/2/2
f 115/2/2 116/2/2 117/2/2
f 117/2/2 116/2/2 118/2/2
f 119/1/2 120/1/2 122/1/2
f 122/1/2 120/1/2 123/1/2
f 121/1/2 122/1/2 125/1/2
f 125/1/2 122/1/2 126/1/2
f 123/1/2 124/1/2 127/1/2
f 127/1/2 124/1/2 128/1/2
f 129/1/2 130/1/2 132/1/2
f 132/1/2 130/1/2 133/1/2
f 131/1/2 132/1/2 136/1/2
f 136/1/2 132/1/2 137/1/2
f 133/1/2 134/1/2 138/1/2
f 138/1/2 134/1/2 139/1/2
f 135/1/2 136/1/2 142/1/2
f 142/1/2 136/1/2 143/1/2
f 139/1/2 140/1/2 144/1/2
f 144/1/2 140/1/2 145/1/2
f 141/1/2 142/1/2 147/1/2
f 147/1/2 142/1/2 148/1/2
f 145/1/2 146/1/2 151/1/2
f 151/1/2 146/1/2 152/1/2
f 148/1/2 149/1/2 153/1/2
f 153/1/2 149/1/2 154/1/2
f 150/1/2 151/1/2 157/1/2
f 157/1/2 151/1/2 158/1/2
f 154/1/2 155/1/2 159/1/2
f 159/1/2 155/1/2 160/1/2
f 156/1/2 157/1/2 161/1/2
f 161/1/2 157/1/2 162/1/2
f 160/1/2 161/1/2 163/1/2
f 163/1/2 161/1/2 164/1/2
f 165/1/2 166/1/2 168/1/2
f 168/1/2 166/1/2 169/1/2
f 167/1/2 168/1/2 172/1/2
f 172/1/2 168/1/2 173/1/2
f 169/1/2 170/1/2 174/1/2
f 174/1/2 170/1/2 175/1/2
f 171/1/2 172/1/2 177/1/2
f 177/1/2 172/1/2 178/1/2
f 175/1/2 176/1/2 181/1/2
f 181/1/2 176/1/2 182/1/2
f 178/1/2 179/1/2 183/1/2
f 183/1/2 179/1/2 184/1/2
f 180/1/2 181/1/2 185/1/2
f 185/1/2 181/1/2 186/1/2
f 184/1/2 185/1/2 187/1/2
f 187/1/2 185/1/2 188/1/2
f 189/1/2 190/1/2 192/1/2
f 192/1/2 190/1/2 193/1/2
f 191/1/2 192/1/2 195/1/2
f 195/1/2 192/1/2 196/1/2
f 193/1/2 194/1/2 197/1/2
f 197/1/2 194/1/2 198/1/2
f 196/1/2 197/1/2 199/1/2
f 199/1/2 197/1/2 200/1/2
f 201/1/2 202/1/2 203/1/2
f 203/1/2 202/1/2 204/1/2
f 207/1/3 206/1/3 205/1/3
f 208/1/3 206/1/3 207/1/3
f 212/1/3 210/1/3 209/1/3
f 213/1/3 210/1/3 212/1/3
f 215/1/3 212/1/3 211/1/3
f 216/1/3 212/1/3 215/1/3
f 217/1/3 214/1/3 213/1/3
f 218/1/3 214/1/3 217/1/3
f 219/1/3 217/1/3 216/1/3
f 220/1/3 217/1/3 219/1/3
f 224/1/3 222/1/3 221/1/3
f 225/1/3 222/1/3 224/1/3
f 228/1/3 224/1/3 223/1/3
f 229/1/3 224/1/3 228/1/3
f 230/1/3 226/1/3 225/1/3
f 231/1/3 226/1/3 230/1/3
f 234/1/3 228/1/3 227/1/3
f 235/1/3 234/1/3 233/1/3
f 236/1/3 228/1/3 234/1/3
f 236/1/3 234/1/3 235/1/3
f 237/1/3 228/1/3 236/1/3
f 238/1/3 228/1/3 237/1/3
f 241/1/3 232/1/3 231/1/3
f 242/1/3 232/1/3 241/1/3
f 243/1/3 239/1/3 238/1/3
f 244/1/3 239/1/3 243/1/3
f 245/1/3 241/1/3 240/1/3
f 246/1/3 241/1/3 245/1/3
f 247/1/3 245/1/3 244/1/3
f 248/1/3 245/1/3 247/1/3
f 252/1/3 250/1/3 249/1/3
f 253/1/3 250/1/3 252/1/3
f 256/1/3 252/1/3 251/1/3
f 257/1/3 252/1/3 256/1/3
f 258/1/3 254/1/3 253/1/3
f 259/1/3 254/1/3 258/1/3
f 262/1/3 256/1/3 255/1/3
f 263/1/3 256/1/3 262/1/3
f 264/1/3 260/1/3 259/1/3
f 265/1/3 260/1/3 264/1/3
f 268/1/3 262/1/3 261/1/3
f 269/1/3 262/1/3 268/1/3
f 270/1/3 268/1/3 267/1/3
f 271/1/3 268/1/3 270/1/3
f 273/1/3 272/1/3 271/1/3
f 274/1/3 272/1/3 273/1/3
f 277/1/3 266/1/3 265/1/3
f 278/1/3 266/1/3 277/1/3
f 279/1/3 275/1/3 274/1/3
f 280/1/3 275/1/3 279/1/3
f 283/1/3 277/1/3 276/1/3
f 284/1/3 277/1/3 283/1/3
f 285/1/3 281/1/3 280/1/3
f 286/1/3 281/1/3 285/1/3
f 287/1/3 283/1/3 282/1/3
f 288/1/3 283/1/3 287/1/3
f 289/1/3 287/1/3 286/1/3
f 290/1/3 287/1/3 289/1/3
f 296/2/3 292/2/3 291/2/3
f 297/2/3 292/2/3 296/2/3
f 298/2/3 292/2/3 297/2/3
f 299/2/3 292/2/3 298/2/3
f 300/2/3 294/2/3 293/2/3
f 301/2/3 294/2/3 300/2/3
f 302/2/3 294/2/3 301/2/3
f 303/2/3 296/2/3 295/2/3
f 303/2/3 297/2/3 296/2/3
f 304/2/3 297/2/3 303/2/3
f 305/2/3 299/2/3 298/2/3
f 305/2/3 301/2/3 300/2/3
f 305/2/3 300/2/3 299/2/3
f 306/2/3 301/2/3 305/2/3
f 307/2/4 308/2/4 312/2/4
f 312/2/4 308/2/4 313/2/4
f 313/2/4 308/2/4 314/2/4
f 314/2/4 308/2/4 315/2/4
f 309/2/4 310/2/4 316/2/4
f 316/2/4 310/2/4 317/2/4
f 317/2/4 310/2/4 318/2/4
f 311/2/4 312/2/4 319/2/4
f 312/2/4 313/2/4 319/2/4
f 319/2/4 313/2/4 320/2/4
f 314/2/4 315/2/4 321/2/4
f 316/2/4 317/2/4 321/2/4
f 315/2/4 316/2/4 321/2/4
f 321/2/4 317/2/4 322/2/4
f 323/1/4 324/1/4 326/1/4
f 326/1/4 324/1/4 327/1/4
f 325/1/4 326/1/4 330/1/4
f 330/1/4 326/1/4 331/1/4
f 327/1/4 328/1/4 332/1/4
f 332/1/4 328/1/4 333/1/4
f 329/1/4 330/1/4 336/1/4
f 336/1/4 330/1/4 337/1/4
f 333/1/4 334/1/4 338/1/4
f 338/1/4 334/1/4 339/1/4
f 335/1/4 336/1/4 342/1/4
f 342/1/4 336/1/4 343/1/4
f 341/1/4 342/1/4 344/1/4
f 344/1/4 342/1/4 345/1/4
f 345/1/4 346/1/4 347/1/4
f 347/1/4 346/1/4 348/1/4
f 339/1/4 340/1/4 351/1/4
f 351/1/4 340/1/4 352/1/4
f 348/1/4 349/1/4 353/1/4
f 353/1/4 349/1/4 354/1/4
f 350/1/4 351/1/4 357/1/4
f 357/1/4 351/1/4 358/1/4
f 354/1/4 355/1/4 359/1/4
f 359/1/4 355/1/4 360/1/4
f 356/1/4 357/1/4 361/1/4
f 361/1/4 357/1/4 362/1/4
f 360/1/4 361/1/4 363/1/4
f 363/1/4 361/1/4 364/1/4
f 365/1/4 366/1/4 368/1/4
f 368/1/4 366/1/4 369/1/4
f 367/1/4 368/1/4 372/1/4
f 372/1/4 368/1/4 373/1/4
f 369/1/4 370/1/4 374/1/4
f 374/1/4 370/1/4 375/1/4
f 371/1/4 372/1/4 378/1/4
f 377/1/4 378/1/4 379/1/4
f 378/1/4 372/1/4 380/1/4
f 379/1/4 378/1/4 380/1/4
f 380/1/4 372/1/4 381/1/4
f 381/1/4 372/1/4 382/1/4
f 375/1/4 376/1/4 385/1/4
f 385/1/4 376/1/4 386/1/4
f 382/1/4 383/1/4 387/1/4
f 387/1/4 383/1/4 388/1/4
f 384/1/4 385/1/4 389/1/4
f 389/1/4 385/1/4 390/1/4
f 388/1/4 389/1/4 391/1/4
f 391/1/4 389/1/4 392/1/4
f 393/1/4 394/1/4 396/1/4
f 396/1/4 394/1/4 397/1/4
f 395/1/4 396/1/4 399/1/4
f 399/1/4 396/1/4 400/1/4
f 397/1/4 398/1/4 401/1/4
f 401/1/4 398/1/4 402/1/4
f 400/1/4 401/1/4 403/1/4
f 403/1/4 401/1/4 404/1/4
f 405/1/4 406/1/4 407/1/4
f 407/1/4 406/1/4 408/1/4
f 411/2/5 410/2/5 409/2/5
f 412/2/5 410/2/5 411/2/5
f 415/2/5 414/2/5 413/2/5
f 416/2/5 414/2/5 415/2/5
f 419/2/5 418/2/5 417/2/5
f 420/2/5 418/2/5 419/2/5
f 423/2/5 422/2/5 421/2/5
f 424/2/5 422/2/5 423/2/5
f 427/1/5 426/1/5 425/1/5
f 428/1/5 426/1/5 427/1/5
f 429/1/5 427/1/5 425/1/5
f 430/1/5 426/1/5 428/1/5
f 431/1/5 429/1/5 425/1/5
f 431/1/5 430/1/5 429/1/5
f 432/1/5 426/1/5 430/1/5
f 432/1/5 430/1/5 431/1/5
f 436/1/5 434/1/5 433/1/5
f 437/1/5 434/1/5 436/1/5
f 439/1/5 436/1/5 435/1/5
f 440/1/5 436/1/5 439/1/5
f 441/1/5 438/1/5 437/1/5
f 442/1/5 438/1/5 441/1/5
f 443/1/5 441/1/5 440/1/5
f 444/1/5 441/1/5 443/1/5
f 450/1/5 446/1/5 445/1/5
f 451/1/5 446/1/5 450/1/5
f 452/1/5 448/1/5 447/1/5
f 453/1/5 448/1/5 452/1/5
f 455/1/5 450/1/5 449/1/5
f 456/1/5 450/1/5 455/1/5
f 459/1/5 454/1/5 453/1/5
f 460/1/5 454/1/5 459/1/5
f 461/1/5 457/1/5 456/1/5
f 462/1/5 457/1/5 461/1/5
f 463/1/5 459/1/5 458/1/5
f 464/1/5 459/1/5 463/1/5
f 468/1/5 466/1/5 465/1/5
f 469/1/5 466/1/5 468/1/5
f 472/1/5 468/1/5 467/1/5
f 473/1/5 468/1/5 472/1/5
f 474/1/5 470/1/5 469/1/5
f 475/1/5 470/1/5 474/1/5
f 477/1/5 472/1/5 471/1/5
f 478/1/5 472/1/5 477/1/5
f 481/1/5 476/1/5 475/1/5
f 482/1/5 476/1/5 481/1/5
f 483/1/5 479/1/5 478/1/5
f 484/1/5 479/1/5 483/1/5
f 485/1/5 481/1/5 480/1/5
f 486/1/5 481/1/5 485/1/5
f 487/1/5 485/1/5 484/1/5
f 488/1/5 485/1/5 487/1/5
f 492/1/5 490/1/5 489/1/5
f 493/1/5 490/1/5 492/1/5
f 496/1/5 492/1/5 491/1/5
f 497/1/5 492/1/5 496/1/5
f 498/1/5 494/1/5 493/1/5
f 499/1/5 494/1/5 498/1/5
f 502/1/5 496/1/5 495/1/5
f 503/1/5 496/1/5 502/1/5
f 504/1/5 500/1/5 499/1/5
f 505/1/5 500/1/5 504/1/5
f 507/1/5 502/1/5 501/1/5
f 508/1/5 502/1/5 507/1/5
f 511/1/5 506/1/5 505/1/5
f 512/1/5 506/1/5 511/1/5
f 513/1/5 509/1/5 508/1/5
f 514/1/5 509/1/5 513/1/5
f 517/1/5 511/1/5 510/1/5
f 518/1/5 511/1/5 517/1/5
f 519/1/5 515/1/5 514/1/5
f 520/1/5 515/1/5 519/1/5
f 521/1/5 517/1/5 516/1/5
f 522/1/5 517/1/5 521/1/5
f 523/1/5 521/1/5 520/1/5
f 524/1/5 521/1/5 523/1/5
f 525/2/6 526/2/6 527/2/6
f 527/2/6 526/2/6 528/2/6
f 529/2/6 530/2/6 531/2/6
f 531/2/6 530/2/6 532/2/6
f 533/2/6 534/2/6 535/2/6
f 535/2/6 534/2/6 536/2/6
f 537/1/6 538/1/6 540/1/6
f 540/1/6 538/1/6 541/1/6
f 539/1/6 540/1/6 544/1/6
f 544/1/6 540/1/6 545/1/6
f 541/1/6 542/1/6 546/1/6
f 546/1/6 542/1/6 547/1/6
f 543/1/6 544/1/6 550/1/6
f 550/1/6 544/1/6 551/1/6
f 547/1/6 548/1/6 552/1/6
f 552/1/6 548/1/6 553/1/6
f 549/1/6 550/1/6 555/1/6
f 555/1/6 550/1/6 556/1/6
f 553/1/6 554/1/6 559/1/6
f 559/1/6 554/1/6 560/1/6
f 556/1/6 557/1/6 561/1/6
f 561/1/6 557/1/6 562/1/6
f 558/1/6 559/1/6 565/1/6
f 565/1/6 559/1/6 566/1/6
f 562/1/6 563/1/6 567/1/6
f 567/1/6 563/1/6 568/1/6
f 564/1/6 565/1/6 569/1/6
f 569/1/6 565/1/6 570/1/6
f 568/1/6 569/1/6 571/1/6
f 571/1/6 569/1/6 572/1/6
f 573/1/6 574/1/6 576/1/6
f 576/1/6 574/1/6 577/1/6
f 575/1/6 576/1/6 580/1/6
f 580/1/6 576/1/6 581/1/6
f 577/1/6 578/1/6 582/1/6
f 582/1/6 578/1/6 583/1/6
f 579/1/6 580/1/6 585/1/6
f 585/1/6 580/1/6 586/1/6
f 583/1/6 584/1/6 589/1/6
f 589/1/6 584/1/6 590/1/6
f 586/1/6 587/1/6 591/1/6
f 591/1/6 587/1/6 592/1/6
f 588/1/6 589/1/6 593/1/6
f 593/1/6 589/1/6 594/1/6
f 592/1/6 593/1/6 595/1/6
f 595/1/6 593/1/6 596/1/6
f 597/1/6 598/1/6 600/1/6
f 600/1/6 598/1/6 601/1/6
f 599/1/6 600/1/6 603/1/6
f 603/1/6 600/1/6 604/1/6
f 601/1/6 602/1/6 605/1/6
f 605/1/6 602/1/6 606/1/6
f 604/1/6 605/1/6 607/1/6
f 607/1/6 605/1/6 608/1/6
f 609/1/6 610/1/6 611/1/6
f 611/1/6 610/1/6 612/1/6
