# MagicaVoxel @ Ephtracy

# material
mtllib bluebiplane.mtl
usemtl palette

# normals
vn -1 0 0
vn 1 0 0
vn 0 0 1
vn 0 0 -1
vn 0 -1 0
vn 0 1 0

# texcoords
vt 0.333984 0.5
vt 0.373047 0.5
vt 0.822266 0.5
vt 0.876953 0.5
vt 0.958984 0.5

# verts
v -12 9 2
v -12 9 -3
v -12 14 2
v -12 14 -3
v -11 8 2
v -11 8 -3
v -11 9 2
v -11 9 -3
v -10 7 2
v -10 7 -3
v -10 8 2
v -10 8 -3
v -10 9 6
v -10 9 2
v -10 9 -3
v -10 9 -7
v -10 10 6
v -10 10 2
v -10 10 -3
v -10 10 -7
v -9 6 2
v -9 6 -3
v -9 7 2
v -9 7 -3
v -1 10 2
v -1 10 -3
v -1 11 2
v -1 11 -3
v 0 11 1
v 0 11 -2
v 0 13 1
v 0 13 -2
v 4 2 2
v 4 2 1
v 4 2 -2
v 4 2 -3
v 4 4 2
v 4 4 1
v 4 4 -2
v 4 4 -3
v 5 1 2
v 5 1 1
v 5 1 -2
v 5 1 -3
v 5 2 2
v 5 2 1
v 5 2 -2
v 5 2 -3
v 5 4 2
v 5 4 1
v 5 4 -2
v 5 4 -3
v 5 5 2
v 5 5 1
v 5 5 -2
v 5 5 -3
v 5 7 11
v 5 7 2
v 5 7 -3
v 5 7 -12
v 5 8 11
v 5 8 3
v 5 8 -4
v 5 8 -12
v 5 9 3
v 5 9 2
v 5 9 -3
v 5 9 -4
v 5 11 3
v 5 11 2
v 5 11 -3
v 5 11 -4
v 5 12 11
v 5 12 3
v 5 12 2
v 5 12 -3
v 5 12 -4
v 5 12 -12
v 5 13 11
v 5 13 -12
v 6 0 2
v 6 0 1
v 6 0 -2
v 6 0 -3
v 6 1 2
v 6 1 1
v 6 1 -2
v 6 1 -3
v 6 5 2
v 6 5 1
v 6 5 -2
v 6 5 -3
v 6 6 2
v 6 6 1
v 6 6 -2
v 6 6 -3
v 6 7 12
v 6 7 11
v 6 7 -12
v 6 7 -13
v 6 8 12
v 6 8 11
v 6 8 -12
v 6 8 -13
v 6 9 3
v 6 9 2
v 6 9 -3
v 6 9 -4
v 6 10 2
v 6 10 -3
v 6 11 3
v 6 11 2
v 6 11 -3
v 6 11 -4
v 6 12 12
v 6 12 11
v 6 12 -12
v 6 12 -13
v 6 13 12
v 6 13 11
v 6 13 -12
v 6 13 -13
v 8 8 3
v 8 8 2
v 8 8 -3
v 8 8 -4
v 8 9 3
v 8 9 2
v 8 9 -3
v 8 9 -4
v 8 11 3
v 8 11 2
v 8 11 -3
v 8 11 -4
v 8 12 3
v 8 12 2
v 8 12 -3
v 8 12 -4
v -11 12 2
v -11 12 -3
v -11 14 2
v -11 14 -3
v -10 11 2
v -10 11 -3
v -10 12 2
v -10 12 -3
v -9 9 6
v -9 9 5
v -9 9 -6
v -9 9 -7
v -9 10 6
v -9 10 5
v -9 10 2
v -9 10 -3
v -9 10 -6
v -9 10 -7
v -9 11 2
v -9 11 -3
v -8 9 5
v -8 9 2
v -8 9 -3
v -8 9 -6
v -8 10 5
v -8 10 2
v -8 10 -3
v -8 10 -6
v 2 11 1
v 2 11 -2
v 2 12 1
v 2 12 -2
v 2 13 1
v 2 13 -2
v 3 10 2
v 3 10 -3
v 3 11 2
v 3 11 -3
v 6 8 3
v 6 8 2
v 6 8 -3
v 6 8 -4
v 6 9 3
v 6 9 2
v 6 9 -3
v 6 9 -4
v 6 11 3
v 6 11 2
v 6 11 -3
v 6 11 -4
v 6 12 3
v 6 12 2
v 6 12 -3
v 6 12 -4
v 8 0 2
v 8 0 1
v 8 0 -2
v 8 0 -3
v 8 1 2
v 8 1 1
v 8 1 -2
v 8 1 -3
v 8 5 2
v 8 5 1
v 8 5 -2
v 8 5 -3
v 8 6 2
v 8 6 1
v 8 6 -2
v 8 6 -3
v 8 7 12
v 8 7 11
v 8 7 -12
v 8 7 -13
v 8 8 12
v 8 8 11
v 8 8 -12
v 8 8 -13
v 8 9 3
v 8 9 2
v 8 9 -3
v 8 9 -4
v 8 10 2
v 8 10 -3
v 8 11 3
v 8 11 2
v 8 11 -3
v 8 11 -4
v 8 12 12
v 8 12 11
v 8 12 -12
v 8 12 -13
v 8 13 12
v 8 13 11
v 8 13 -12
v 8 13 -13
v 9 1 2
v 9 1 1
v 9 1 -2
v 9 1 -3
v 9 2 2
v 9 2 1
v 9 2 -2
v 9 2 -3
v 9 4 2
v 9 4 1
v 9 4 -2
v 9 4 -3
v 9 5 2
v 9 5 1
v 9 5 -2
v 9 5 -3
v 9 7 11
v 9 7 2
v 9 7 -3
v 9 7 -12
v 9 8 11
v 9 8 3
v 9 8 -4
v 9 8 -12
v 9 9 3
v 9 9 2
v 9 9 -3
v 9 9 -4
v 9 11 3
v 9 11 2
v 9 11 -3
v 9 11 -4
v 9 12 11
v 9 12 3
v 9 12 2
v 9 12 -3
v 9 12 -4
v 9 12 -12
v 9 13 11
v 9 13 -12
v 10 2 2
v 10 2 1
v 10 2 -2
v 10 2 -3
v 10 4 2
v 10 4 1
v 10 4 -2
v 10 4 -3
v 11 6 2
v 11 6 -3
v 11 10 2
v 11 10 -3
v 6 7 12
v 6 8 12
v 6 12 12
v 6 13 12
v 8 7 12
v 8 8 12
v 8 12 12
v 8 13 12
v 5 7 11
v 5 8 11
v 5 12 11
v 5 13 11
v 6 7 11
v 6 8 11
v 6 12 11
v 6 13 11
v 8 7 11
v 8 8 11
v 8 12 11
v 8 13 11
v 9 7 11
v 9 8 11
v 9 12 11
v 9 13 11
v -10 9 6
v -10 10 6
v -9 9 6
v -9 10 6
v -9 9 5
v -9 10 5
v -8 9 5
v -8 10 5
v 5 8 3
v 5 9 3
v 5 11 3
v 5 12 3
v 6 8 3
v 6 9 3
v 6 11 3
v 6 12 3
v 8 8 3
v 8 9 3
v 8 11 3
v 8 12 3
v 9 8 3
v 9 9 3
v 9 11 3
v 9 12 3
v -12 9 2
v -12 14 2
v -11 8 2
v -11 9 2
v -11 12 2
v -11 14 2
v -10 7 2
v -10 8 2
v -10 9 2
v -10 10 2
v -10 11 2
v -10 12 2
v -9 6 2
v -9 7 2
v -9 10 2
v -9 11 2
v -8 9 2
v -8 10 2
v -1 10 2
v -1 11 2
v 3 10 2
v 3 11 2
v 4 2 2
v 4 4 2
v 5 1 2
v 5 2 2
v 5 4 2
v 5 5 2
v 5 7 2
v 5 9 2
v 6 0 2
v 6 1 2
v 6 2 2
v 6 4 2
v 6 5 2
v 6 6 2
v 6 8 2
v 6 9 2
v 6 10 2
v 8 0 2
v 8 1 2
v 8 2 2
v 8 4 2
v 8 5 2
v 8 6 2
v 8 8 2
v 8 9 2
v 8 10 2
v 9 1 2
v 9 2 2
v 9 4 2
v 9 5 2
v 9 7 2
v 9 9 2
v 10 2 2
v 10 4 2
v 11 6 2
v 11 10 2
v 0 11 1
v 0 13 1
v 1 11 1
v 1 12 1
v 2 11 1
v 2 12 1
v 2 13 1
v 4 2 -2
v 4 4 -2
v 5 1 -2
v 5 2 -2
v 5 4 -2
v 5 5 -2
v 6 0 -2
v 6 1 -2
v 6 2 -2
v 6 4 -2
v 6 5 -2
v 6 6 -2
v 8 0 -2
v 8 1 -2
v 8 2 -2
v 8 4 -2
v 8 5 -2
v 8 6 -2
v 9 1 -2
v 9 2 -2
v 9 4 -2
v 9 5 -2
v 10 2 -2
v 10 4 -2
v 5 11 -3
v 5 12 -3
v 6 10 -3
v 6 11 -3
v 6 12 -3
v 8 10 -3
v 8 11 -3
v 8 12 -3
v 9 11 -3
v 9 12 -3
v 5 11 2
v 5 12 2
v 6 10 2
v 6 11 2
v 6 12 2
v 8 10 2
v 8 11 2
v 8 12 2
v 9 11 2
v 9 12 2
v 4 2 1
v 4 4 1
v 5 1 1
v 5 2 1
v 5 4 1
v 5 5 1
v 6 0 1
v 6 1 1
v 6 2 1
v 6 4 1
v 6 5 1
v 6 6 1
v 8 0 1
v 8 1 1
v 8 2 1
v 8 4 1
v 8 5 1
v 8 6 1
v 9 1 1
v 9 2 1
v 9 4 1
v 9 5 1
v 10 2 1
v 10 4 1
v 0 11 -2
v 0 13 -2
v 1 11 -2
v 1 12 -2
v 2 11 -2
v 2 12 -2
v 2 13 -2
v -12 9 -3
v -12 14 -3
v -11 8 -3
v -11 9 -3
v -11 12 -3
v -11 14 -3
v -10 7 -3
v -10 8 -3
v -10 9 -3
v -10 10 -3
v -10 11 -3
v -10 12 -3
v -9 6 -3
v -9 7 -3
v -9 10 -3
v -9 11 -3
v -8 9 -3
v -8 10 -3
v -1 10 -3
v -1 11 -3
v 3 10 -3
v 3 11 -3
v 4 2 -3
v 4 4 -3
v 5 1 -3
v 5 2 -3
v 5 4 -3
v 5 5 -3
v 5 7 -3
v 5 9 -3
v 6 0 -3
v 6 1 -3
v 6 2 -3
v 6 4 -3
v 6 5 -3
v 6 6 -3
v 6 8 -3
v 6 9 -3
v 6 10 -3
v 8 0 -3
v 8 1 -3
v 8 2 -3
v 8 4 -3
v 8 5 -3
v 8 6 -3
v 8 8 -3
v 8 9 -3
v 8 10 -3
v 9 1 -3
v 9 2 -3
v 9 4 -3
v 9 5 -3
v 9 7 -3
v 9 9 -3
v 10 2 -3
v 10 4 -3
v 11 6 -3
v 11 10 -3
v 5 8 -4
v 5 9 -4
v 5 11 -4
v 5 12 -4
v 6 8 -4
v 6 9 -4
v 6 11 -4
v 6 12 -4
v 8 8 -4
v 8 9 -4
v 8 11 -4
v 8 12 -4
v 9 8 -4
v 9 9 -4
v 9 11 -4
v 9 12 -4
v -9 9 -6
v -9 10 -6
v -8 9 -6
v -8 10 -6
v -10 9 -7
v -10 10 -7
v -9 9 -7
v -9 10 -7
v 5 7 -12
v 5 8 -12
v 5 12 -12
v 5 13 -12
v 6 7 -12
v 6 8 -12
v 6 12 -12
v 6 13 -12
v 8 7 -12
v 8 8 -12
v 8 12 -12
v 8 13 -12
v 9 7 -12
v 9 8 -12
v 9 12 -12
v 9 13 -12
v 6 7 -13
v 6 8 -13
v 6 12 -13
v 6 13 -13
v 8 7 -13
v 8 8 -13
v 8 12 -13
v 8 13 -13
v 6 0 2
v 8 0 2
v 6 0 1
v 8 0 1
v 6 0 -2
v 8 0 -2
v 6 0 -3
v 8 0 -3
v 5 1 2
v 6 1 2
v 8 1 2
v 9 1 2
v 5 1 1
v 6 1 1
v 8 1 1
v 9 1 1
v 5 1 -2
v 6 1 -2
v 8 1 -2
v 9 1 -2
v 5 1 -3
v 6 1 -3
v 8 1 -3
v 9 1 -3
v 4 2 2
v 5 2 2
v 9 2 2
v 10 2 2
v 4 2 1
v 5 2 1
v 9 2 1
v 10 2 1
v 4 2 -2
v 5 2 -2
v 9 2 -2
v 10 2 -2
v 4 2 -3
v 5 2 -3
v 9 2 -3
v 10 2 -3
v -9 6 2
v 6 6 2
v 8 6 2
v 11 6 2
v 6 6 1
v 8 6 1
v 6 6 -2
v 8 6 -2
v -9 6 -3
v 6 6 -3
v 8 6 -3
v 11 6 -3
v 6 7 12
v 8 7 12
v 5 7 11
v 6 7 11
v 8 7 11
v 9 7 11
v -10 7 2
v -9 7 2
v 5 7 2
v 9 7 2
v -10 7 -3
v -9 7 -3
v 5 7 -3
v 9 7 -3
v 5 7 -12
v 6 7 -12
v 8 7 -12
v 9 7 -12
v 6 7 -13
v 8 7 -13
v -11 8 2
v -10 8 2
v -11 8 -3
v -10 8 -3
v -10 9 6
v -9 9 6
v -9 9 5
v -8 9 5
v 6 9 3
v 8 9 3
v -12 9 2
v -11 9 2
v -10 9 2
v -8 9 2
v 6 9 2
v 8 9 2
v -12 9 -3
v -11 9 -3
v -10 9 -3
v -8 9 -3
v 6 9 -3
v 8 9 -3
v 6 9 -4
v 8 9 -4
v -9 9 -6
v -8 9 -6
v -10 9 -7
v -9 9 -7
v 5 11 3
v 6 11 3
v 8 11 3
v 9 11 3
v 5 11 2
v 6 11 2
v 8 11 2
v 9 11 2
v 5 11 -3
v 6 11 -3
v 8 11 -3
v 9 11 -3
v 5 11 -4
v 6 11 -4
v 8 11 -4
v 9 11 -4
v 6 12 12
v 8 12 12
v 5 12 11
v 6 12 11
v 8 12 11
v 9 12 11
v 5 12 3
v 6 12 3
v 8 12 3
v 9 12 3
v 5 12 2
v 6 12 2
v 8 12 2
v 9 12 2
v 5 12 -3
v 6 12 -3
v 8 12 -3
v 9 12 -3
v 5 12 -4
v 6 12 -4
v 8 12 -4
v 9 12 -4
v 5 12 -12
v 6 12 -12
v 8 12 -12
v 9 12 -12
v 6 12 -13
v 8 12 -13
v 4 4 2
v 5 4 2
v 9 4 2
v 10 4 2
v 4 4 1
v 5 4 1
v 9 4 1
v 10 4 1
v 4 4 -2
v 5 4 -2
v 9 4 -2
v 10 4 -2
v 4 4 -3
v 5 4 -3
v 9 4 -3
v 10 4 -3
v 5 5 2
v 6 5 2
v 8 5 2
v 9 5 2
v 5 5 1
v 6 5 1
v 8 5 1
v 9 5 1
v 5 5 -2
v 6 5 -2
v 8 5 -2
v 9 5 -2
v 5 5 -3
v 6 5 -3
v 8 5 -3
v 9 5 -3
v 6 8 12
v 8 8 12
v 5 8 11
v 6 8 11
v 8 8 11
v 9 8 11
v 5 8 3
v 6 8 3
v 8 8 3
v 9 8 3
v 6 8 2
v 8 8 2
v 6 8 -3
v 8 8 -3
v 5 8 -4
v 6 8 -4
v 8 8 -4
v 9 8 -4
v 5 8 -12
v 6 8 -12
v 8 8 -12
v 9 8 -12
v 6 8 -13
v 8 8 -13
v 5 9 3
v 6 9 3
v 8 9 3
v 9 9 3
v 5 9 2
v 6 9 2
v 8 9 2
v 9 9 2
v 5 9 -3
v 6 9 -3
v 8 9 -3
v 9 9 -3
v 5 9 -4
v 6 9 -4
v 8 9 -4
v 9 9 -4
v -10 10 6
v -9 10 6
v -9 10 5
v -8 10 5
v -10 10 2
v -9 10 2
v -8 10 2
v -1 10 2
v 3 10 2
v 6 10 2
v 8 10 2
v 11 10 2
v -10 10 -3
v -9 10 -3
v -8 10 -3
v -1 10 -3
v 3 10 -3
v 6 10 -3
v 8 10 -3
v 11 10 -3
v -9 10 -6
v -8 10 -6
v -10 10 -7
v -9 10 -7
v 6 11 3
v 8 11 3
v -10 11 2
v -9 11 2
v -1 11 2
v 3 11 2
v 6 11 2
v 8 11 2
v 0 11 1
v 1 11 1
v 2 11 1
v 0 11 -2
v 1 11 -2
v 2 11 -2
v -10 11 -3
v -9 11 -3
v -1 11 -3
v 3 11 -3
v 6 11 -3
v 8 11 -3
v 6 11 -4
v 8 11 -4
v -11 12 2
v -10 12 2
v -11 12 -3
v -10 12 -3
v 6 13 12
v 8 13 12
v 5 13 11
v 6 13 11
v 8 13 11
v 9 13 11
v 0 13 1
v 2 13 1
v 0 13 -2
v 2 13 -2
v 5 13 -12
v 6 13 -12
v 8 13 -12
v 9 13 -12
v 6 13 -13
v 8 13 -13
v -12 14 2
v -11 14 2
v -12 14 -3
v -11 14 -3

# faces
f 3/3/1 2/3/1 1/3/1
f 4/3/1 2/3/1 3/3/1
f 7/3/1 6/3/1 5/3/1
f 8/3/1 6/3/1 7/3/1
f 11/3/1 10/3/1 9/3/1
f 12/3/1 10/3/1 11/3/1
f 17/3/1 14/3/1 13/3/1
f 18/3/1 14/3/1 17/3/1
f 19/3/1 16/3/1 15/3/1
f 20/3/1 16/3/1 19/3/1
f 23/3/1 22/3/1 21/3/1
f 24/3/1 22/3/1 23/3/1
f 27/4/1 26/4/1 25/4/1
f 28/4/1 26/4/1 27/4/1
f 31/1/1 30/1/1 29/1/1
f 32/1/1 30/1/1 31/1/1
f 37/4/1 34/4/1 33/4/1
f 38/4/1 34/4/1 37/4/1
f 39/4/1 36/4/1 35/4/1
f 40/4/1 36/4/1 39/4/1
f 45/4/1 42/4/1 41/4/1
f 46/4/1 42/4/1 45/4/1
f 47/4/1 44/4/1 43/4/1
f 48/4/1 44/4/1 47/4/1
f 53/4/1 50/4/1 49/4/1
f 54/4/1 50/4/1 53/4/1
f 55/4/1 52/4/1 51/4/1
f 56/4/1 52/4/1 55/4/1
f 61/4/1 58/4/1 57/4/1
f 62/4/1 58/4/1 61/4/1
f 63/4/1 60/4/1 59/4/1
f 64/4/1 60/4/1 63/4/1
f 65/4/1 58/4/1 62/4/1
f 66/4/1 58/4/1 65/4/1
f 67/4/1 63/4/1 59/4/1
f 68/4/1 63/4/1 67/4/1
f 74/4/1 70/4/1 69/4/1
f 75/4/1 70/4/1 74/4/1
f 76/4/1 72/4/1 71/4/1
f 77/4/1 72/4/1 76/4/1
f 79/4/1 77/4/1 76/4/1
f 79/4/1 78/4/1 77/4/1
f 79/4/1 76/4/1 75/4/1
f 79/4/1 75/4/1 74/4/1
f 79/4/1 74/4/1 73/4/1
f 80/4/1 78/4/1 79/4/1
f 85/4/1 82/4/1 81/4/1
f 86/4/1 82/4/1 85/4/1
f 87/4/1 84/4/1 83/4/1
f 88/4/1 84/4/1 87/4/1
f 93/4/1 90/4/1 89/4/1
f 94/4/1 90/4/1 93/4/1
f 95/4/1 92/4/1 91/4/1
f 96/4/1 92/4/1 95/4/1
f 101/4/1 98/4/1 97/4/1
f 102/4/1 98/4/1 101/4/1
f 103/4/1 100/4/1 99/4/1
f 104/4/1 100/4/1 103/4/1
f 109/4/1 106/4/1 105/4/1
f 110/4/1 108/4/1 107/4/1
f 111/4/1 109/4/1 105/4/1
f 112/4/1 109/4/1 111/4/1
f 113/4/1 108/4/1 110/4/1
f 114/4/1 108/4/1 113/4/1
f 119/4/1 116/4/1 115/4/1
f 120/4/1 116/4/1 119/4/1
f 121/4/1 118/4/1 117/4/1
f 122/4/1 118/4/1 121/4/1
f 127/4/1 124/4/1 123/4/1
f 128/4/1 124/4/1 127/4/1
f 129/4/1 126/4/1 125/4/1
f 130/4/1 126/4/1 129/4/1
f 135/4/1 132/4/1 131/4/1
f 136/4/1 132/4/1 135/4/1
f 137/4/1 134/4/1 133/4/1
f 138/4/1 134/4/1 137/4/1
f 139/3/2 140/3/2 141/3/2
f 141/3/2 140/3/2 142/3/2
f 143/3/2 144/3/2 145/3/2
f 145/3/2 144/3/2 146/3/2
f 147/3/2 148/3/2 151/3/2
f 151/3/2 148/3/2 152/3/2
f 149/3/2 150/3/2 155/3/2
f 155/3/2 150/3/2 156/3/2
f 153/3/2 154/3/2 157/3/2
f 157/3/2 154/3/2 158/3/2
f 159/3/2 160/3/2 163/3/2
f 163/3/2 160/3/2 164/3/2
f 161/3/2 162/3/2 165/3/2
f 165/3/2 162/3/2 166/3/2
f 167/5/2 168/5/2 169/5/2
f 169/5/2 168/5/2 170/5/2
f 169/1/2 170/1/2 171/1/2
f 171/1/2 170/1/2 172/1/2
f 173/4/2 174/4/2 175/4/2
f 175/4/2 174/4/2 176/4/2
f 177/4/2 178/4/2 181/4/2
f 181/4/2 178/4/2 182/4/2
f 179/4/2 180/4/2 183/4/2
f 183/4/2 180/4/2 184/4/2
f 185/4/2 186/4/2 189/4/2
f 189/4/2 186/4/2 190/4/2
f 187/4/2 188/4/2 191/4/2
f 191/4/2 188/4/2 192/4/2
f 193/4/2 194/4/2 197/4/2
f 197/4/2 194/4/2 198/4/2
f 195/4/2 196/4/2 199/4/2
f 199/4/2 196/4/2 200/4/2
f 201/4/2 202/4/2 205/4/2
f 205/4/2 202/4/2 206/4/2
f 203/4/2 204/4/2 207/4/2
f 207/4/2 204/4/2 208/4/2
f 209/4/2 210/4/2 213/4/2
f 213/4/2 210/4/2 214/4/2
f 211/4/2 212/4/2 215/4/2
f 215/4/2 212/4/2 216/4/2
f 217/4/2 218/4/2 221/4/2
f 219/4/2 220/4/2 222/4/2
f 217/4/2 221/4/2 223/4/2
f 223/4/2 221/4/2 224/4/2
f 222/4/2 220/4/2 225/4/2
f 225/4/2 220/4/2 226/4/2
f 227/4/2 228/4/2 231/4/2
f 231/4/2 228/4/2 232/4/2
f 229/4/2 230/4/2 233/4/2
f 233/4/2 230/4/2 234/4/2
f 235/4/2 236/4/2 239/4/2
f 239/4/2 236/4/2 240/4/2
f 237/4/2 238/4/2 241/4/2
f 241/4/2 238/4/2 242/4/2
f 243/4/2 244/4/2 247/4/2
f 247/4/2 244/4/2 248/4/2
f 245/4/2 246/4/2 249/4/2
f 249/4/2 246/4/2 250/4/2
f 251/4/2 252/4/2 255/4/2
f 255/4/2 252/4/2 256/4/2
f 253/4/2 254/4/2 257/4/2
f 257/4/2 254/4/2 258/4/2
f 256/4/2 252/4/2 259/4/2
f 259/4/2 252/4/2 260/4/2
f 253/4/2 257/4/2 261/4/2
f 261/4/2 257/4/2 262/4/2
f 263/4/2 264/4/2 268/4/2
f 268/4/2 264/4/2 269/4/2
f 265/4/2 266/4/2 270/4/2
f 270/4/2 266/4/2 271/4/2
f 270/4/2 271/4/2 273/4/2
f 271/4/2 272/4/2 273/4/2
f 269/4/2 270/4/2 273/4/2
f 268/4/2 269/4/2 273/4/2
f 267/4/2 268/4/2 273/4/2
f 273/4/2 272/4/2 274/4/2
f 275/4/2 276/4/2 279/4/2
f 279/4/2 276/4/2 280/4/2
f 277/4/2 278/4/2 281/4/2
f 281/4/2 278/4/2 282/4/2
f 283/3/2 284/3/2 285/3/2
f 285/3/2 284/3/2 286/3/2
f 291/4/3 288/4/3 287/4/3
f 292/4/3 288/4/3 291/4/3
f 293/4/3 290/4/3 289/4/3
f 294/4/3 290/4/3 293/4/3
f 299/4/3 296/4/3 295/4/3
f 300/4/3 296/4/3 299/4/3
f 301/4/3 298/4/3 297/4/3
f 302/4/3 298/4/3 301/4/3
f 307/4/3 304/4/3 303/4/3
f 308/4/3 304/4/3 307/4/3
f 309/4/3 306/4/3 305/4/3
f 310/4/3 306/4/3 309/4/3
f 313/3/3 312/3/3 311/3/3
f 314/3/3 312/3/3 313/3/3
f 317/3/3 316/3/3 315/3/3
f 318/3/3 316/3/3 317/3/3
f 323/4/3 320/4/3 319/4/3
f 324/4/3 320/4/3 323/4/3
f 325/4/3 322/4/3 321/4/3
f 326/4/3 322/4/3 325/4/3
f 328/4/3 325/4/3 324/4/3
f 329/4/3 325/4/3 328/4/3
f 331/4/3 328/4/3 327/4/3
f 332/4/3 328/4/3 331/4/3
f 333/4/3 330/4/3 329/4/3
f 334/4/3 330/4/3 333/4/3
f 338/3/3 336/3/3 335/3/3
f 339/3/3 336/3/3 338/3/3
f 340/3/3 336/3/3 339/3/3
f 342/3/3 338/3/3 337/3/3
f 342/3/3 339/3/3 338/3/3
f 343/3/3 339/3/3 342/3/3
f 344/3/3 339/3/3 343/3/3
f 345/3/3 339/3/3 344/3/3
f 346/3/3 339/3/3 345/3/3
f 348/3/3 342/3/3 341/3/3
f 348/3/3 343/3/3 342/3/3
f 349/3/3 345/3/3 344/3/3
f 350/3/3 345/3/3 349/3/3
f 351/3/3 348/3/3 347/3/3
f 351/3/3 343/3/3 348/3/3
f 353/3/3 352/3/3 351/3/3
f 355/3/3 353/3/3 351/3/3
f 355/4/3 354/4/3 353/4/3
f 356/4/3 354/4/3 355/4/3
f 360/4/3 358/4/3 357/4/3
f 361/4/3 358/4/3 360/4/3
f 363/3/3 351/3/3 347/3/3
f 363/3/3 355/3/3 351/3/3
f 364/3/3 355/3/3 363/3/3
f 366/4/3 362/4/3 361/4/3
f 366/4/3 361/4/3 360/4/3
f 366/4/3 360/4/3 359/4/3
f 367/4/3 362/4/3 366/4/3
f 368/4/3 362/4/3 367/4/3
f 369/4/3 362/4/3 368/4/3
f 370/3/3 363/3/3 347/3/3
f 372/3/3 355/3/3 364/3/3
f 373/3/3 355/3/3 372/3/3
f 374/4/3 366/4/3 365/4/3
f 374/4/3 367/4/3 366/4/3
f 375/4/3 367/4/3 374/4/3
f 376/3/3 368/3/3 367/3/3
f 376/4/3 367/4/3 375/4/3
f 377/4/3 370/4/3 369/4/3
f 377/3/3 368/3/3 376/3/3
f 377/4/3 369/4/3 368/4/3
f 378/4/3 370/4/3 377/4/3
f 379/3/3 363/3/3 370/3/3
f 379/4/3 370/4/3 378/4/3
f 380/3/3 372/3/3 371/3/3
f 381/3/3 372/3/3 380/3/3
f 383/4/3 376/4/3 375/4/3
f 383/4/3 378/4/3 377/4/3
f 383/4/3 377/4/3 376/4/3
f 384/4/3 378/4/3 383/4/3
f 385/4/3 378/4/3 384/4/3
f 386/4/3 378/4/3 385/4/3
f 387/3/3 363/3/3 379/3/3
f 388/3/3 382/3/3 381/3/3
f 389/4/3 385/4/3 384/4/3
f 390/4/3 385/4/3 389/4/3
f 391/3/3 387/3/3 379/3/3
f 391/3/3 388/3/3 387/3/3
f 392/3/3 382/3/3 388/3/3
f 392/3/3 388/3/3 391/3/3
f 395/1/3 394/1/3 393/1/3
f 396/1/3 394/1/3 395/1/3
f 397/5/3 396/5/3 395/5/3
f 398/1/3 394/1/3 396/1/3
f 398/5/3 396/5/3 397/5/3
f 399/1/3 394/1/3 398/1/3
f 403/4/3 401/4/3 400/4/3
f 404/4/3 401/4/3 403/4/3
f 407/4/3 403/4/3 402/4/3
f 407/4/3 405/4/3 404/4/3
f 407/4/3 404/4/3 403/4/3
f 408/4/3 405/4/3 407/4/3
f 409/4/3 405/4/3 408/4/3
f 410/4/3 405/4/3 409/4/3
f 412/4/3 407/4/3 406/4/3
f 412/4/3 408/4/3 407/4/3
f 413/4/3 408/4/3 412/4/3
f 414/3/3 409/3/3 408/3/3
f 414/4/3 408/4/3 413/4/3
f 415/4/3 411/4/3 410/4/3
f 415/3/3 409/3/3 414/3/3
f 415/4/3 410/4/3 409/4/3
f 416/4/3 411/4/3 415/4/3
f 417/4/3 411/4/3 416/4/3
f 418/4/3 414/4/3 413/4/3
f 418/4/3 416/4/3 415/4/3
f 418/4/3 415/4/3 414/4/3
f 419/4/3 416/4/3 418/4/3
f 420/4/3 416/4/3 419/4/3
f 421/4/3 416/4/3 420/4/3
f 422/4/3 420/4/3 419/4/3
f 423/4/3 420/4/3 422/4/3
f 427/4/3 425/4/3 424/4/3
f 428/4/3 425/4/3 427/4/3
f 429/4/3 427/4/3 426/4/3
f 430/4/3 427/4/3 429/4/3
f 432/4/3 431/4/3 430/4/3
f 433/4/3 431/4/3 432/4/3
f 434/4/4 435/4/4 437/4/4
f 437/4/4 435/4/4 438/4/4
f 436/4/4 437/4/4 439/4/4
f 439/4/4 437/4/4 440/4/4
f 440/4/4 441/4/4 442/4/4
f 442/4/4 441/4/4 443/4/4
f 444/4/4 445/4/4 447/4/4
f 447/4/4 445/4/4 448/4/4
f 446/4/4 447/4/4 451/4/4
f 448/4/4 449/4/4 451/4/4
f 447/4/4 448/4/4 451/4/4
f 451/4/4 449/4/4 452/4/4
f 452/4/4 449/4/4 453/4/4
f 453/4/4 449/4/4 454/4/4
f 450/4/4 451/4/4 456/4/4
f 451/4/4 452/4/4 456/4/4
f 456/4/4 452/4/4 457/4/4
f 452/3/4 453/3/4 458/3/4
f 457/4/4 452/4/4 458/4/4
f 454/4/4 455/4/4 459/4/4
f 458/3/4 453/3/4 459/3/4
f 453/4/4 454/4/4 459/4/4
f 459/4/4 455/4/4 460/4/4
f 460/4/4 455/4/4 461/4/4
f 457/4/4 458/4/4 462/4/4
f 459/4/4 460/4/4 462/4/4
f 458/4/4 459/4/4 462/4/4
f 462/4/4 460/4/4 463/4/4
f 463/4/4 460/4/4 464/4/4
f 464/4/4 460/4/4 465/4/4
f 463/4/4 464/4/4 466/4/4
f 466/4/4 464/4/4 467/4/4
f 468/1/4 469/1/4 470/1/4
f 470/1/4 469/1/4 471/1/4
f 470/5/4 471/5/4 472/5/4
f 471/1/4 469/1/4 473/1/4
f 472/5/4 471/5/4 473/5/4
f 473/1/4 469/1/4 474/1/4
f 475/3/4 476/3/4 478/3/4
f 478/3/4 476/3/4 479/3/4
f 479/3/4 476/3/4 480/3/4
f 477/3/4 478/3/4 482/3/4
f 478/3/4 479/3/4 482/3/4
f 482/3/4 479/3/4 483/3/4
f 483/3/4 479/3/4 484/3/4
f 484/3/4 479/3/4 485/3/4
f 485/3/4 479/3/4 486/3/4
f 481/3/4 482/3/4 488/3/4
f 482/3/4 483/3/4 488/3/4
f 484/3/4 485/3/4 489/3/4
f 489/3/4 485/3/4 490/3/4
f 487/3/4 488/3/4 491/3/4
f 488/3/4 483/3/4 491/3/4
f 491/3/4 492/3/4 493/3/4
f 491/3/4 493/3/4 495/3/4
f 493/4/4 494/4/4 495/4/4
f 495/4/4 494/4/4 496/4/4
f 497/4/4 498/4/4 500/4/4
f 500/4/4 498/4/4 501/4/4
f 487/3/4 491/3/4 503/3/4
f 491/3/4 495/3/4 503/3/4
f 503/3/4 495/3/4 504/3/4
f 501/4/4 502/4/4 506/4/4
f 500/4/4 501/4/4 506/4/4
f 499/4/4 500/4/4 506/4/4
f 506/4/4 502/4/4 507/4/4
f 507/4/4 502/4/4 508/4/4
f 508/4/4 502/4/4 509/4/4
f 487/3/4 503/3/4 510/3/4
f 504/3/4 495/3/4 512/3/4
f 512/3/4 495/3/4 513/3/4
f 505/4/4 506/4/4 514/4/4
f 506/4/4 507/4/4 514/4/4
f 514/4/4 507/4/4 515/4/4
f 507/3/4 508/3/4 516/3/4
f 515/4/4 507/4/4 516/4/4
f 509/4/4 510/4/4 517/4/4
f 516/3/4 508/3/4 517/3/4
f 508/4/4 509/4/4 517/4/4
f 517/4/4 510/4/4 518/4/4
f 510/3/4 503/3/4 519/3/4
f 518/4/4 510/4/4 519/4/4
f 511/3/4 512/3/4 520/3/4
f 520/3/4 512/3/4 521/3/4
f 515/4/4 516/4/4 523/4/4
f 517/4/4 518/4/4 523/4/4
f 516/4/4 517/4/4 523/4/4
f 523/4/4 518/4/4 524/4/4
f 524/4/4 518/4/4 525/4/4
f 525/4/4 518/4/4 526/4/4
f 519/3/4 503/3/4 527/3/4
f 521/3/4 522/3/4 528/3/4
f 524/4/4 525/4/4 529/4/4
f 529/4/4 525/4/4 530/4/4
f 519/3/4 527/3/4 531/3/4
f 527/3/4 528/3/4 531/3/4
f 528/3/4 522/3/4 532/3/4
f 531/3/4 528/3/4 532/3/4
f 533/4/4 534/4/4 537/4/4
f 537/4/4 534/4/4 538/4/4
f 535/4/4 536/4/4 539/4/4
f 539/4/4 536/4/4 540/4/4
f 538/4/4 539/4/4 542/4/4
f 542/4/4 539/4/4 543/4/4
f 541/4/4 542/4/4 545/4/4
f 545/4/4 542/4/4 546/4/4
f 543/4/4 544/4/4 547/4/4
f 547/4/4 544/4/4 548/4/4
f 549/3/4 550/3/4 551/3/4
f 551/3/4 550/3/4 552/3/4
f 553/3/4 554/3/4 555/3/4
f 555/3/4 554/3/4 556/3/4
f 557/4/4 558/4/4 561/4/4
f 561/4/4 558/4/4 562/4/4
f 559/4/4 560/4/4 563/4/4
f 563/4/4 560/4/4 564/4/4
f 565/4/4 566/4/4 569/4/4
f 569/4/4 566/4/4 570/4/4
f 567/4/4 568/4/4 571/4/4
f 571/4/4 568/4/4 572/4/4
f 573/4/4 574/4/4 577/4/4
f 577/4/4 574/4/4 578/4/4
f 575/4/4 576/4/4 579/4/4
f 579/4/4 576/4/4 580/4/4
f 583/4/5 582/4/5 581/4/5
f 584/4/5 582/4/5 583/4/5
f 587/4/5 586/4/5 585/4/5
f 588/4/5 586/4/5 587/4/5
f 593/4/5 590/4/5 589/4/5
f 594/4/5 590/4/5 593/4/5
f 595/4/5 592/4/5 591/4/5
f 596/4/5 592/4/5 595/4/5
f 601/4/5 598/4/5 597/4/5
f 602/4/5 598/4/5 601/4/5
f 603/4/5 600/4/5 599/4/5
f 604/4/5 600/4/5 603/4/5
f 609/4/5 606/4/5 605/4/5
f 610/4/5 606/4/5 609/4/5
f 611/4/5 608/4/5 607/4/5
f 612/4/5 608/4/5 611/4/5
f 617/4/5 614/4/5 613/4/5
f 618/4/5 614/4/5 617/4/5
f 619/4/5 616/4/5 615/4/5
f 620/4/5 616/4/5 619/4/5
f 625/3/5 622/3/5 621/3/5
f 626/3/5 624/3/5 623/3/5
f 627/3/5 625/3/5 621/3/5
f 627/3/5 626/3/5 625/3/5
f 628/3/5 624/3/5 626/3/5
f 628/3/5 626/3/5 627/3/5
f 629/3/5 627/3/5 621/3/5
f 630/3/5 627/3/5 629/3/5
f 631/3/5 624/3/5 628/3/5
f 632/3/5 624/3/5 631/3/5
f 636/4/5 634/4/5 633/4/5
f 637/4/5 634/4/5 636/4/5
f 641/4/5 636/4/5 635/4/5
f 641/4/5 637/4/5 636/4/5
f 641/4/5 638/4/5 637/4/5
f 642/4/5 638/4/5 641/4/5
f 643/3/5 640/3/5 639/3/5
f 644/3/5 640/3/5 643/3/5
f 647/4/5 646/4/5 645/4/5
f 648/4/5 646/4/5 647/4/5
f 649/4/5 646/4/5 648/4/5
f 650/4/5 646/4/5 649/4/5
f 651/4/5 649/4/5 648/4/5
f 652/4/5 649/4/5 651/4/5
f 655/3/5 654/3/5 653/3/5
f 656/3/5 654/3/5 655/3/5
f 659/3/5 658/3/5 657/3/5
f 665/3/5 659/3/5 657/3/5
f 665/3/5 660/3/5 659/3/5
f 666/3/5 660/3/5 665/3/5
f 667/4/5 662/4/5 661/4/5
f 668/4/5 662/4/5 667/4/5
f 669/3/5 664/3/5 663/3/5
f 670/3/5 664/3/5 669/3/5
f 675/4/5 674/4/5 673/4/5
f 676/4/5 674/4/5 675/4/5
f 677/3/5 672/3/5 671/3/5
f 678/3/5 672/3/5 677/3/5
f 679/3/5 677/3/5 671/3/5
f 680/3/5 677/3/5 679/3/5
f 685/4/5 682/4/5 681/4/5
f 686/4/5 682/4/5 685/4/5
f 687/4/5 684/4/5 683/4/5
f 688/4/5 684/4/5 687/4/5
f 693/4/5 690/4/5 689/4/5
f 694/4/5 690/4/5 693/4/5
f 695/4/5 692/4/5 691/4/5
f 696/4/5 692/4/5 695/4/5
f 700/4/5 698/4/5 697/4/5
f 701/4/5 698/4/5 700/4/5
f 703/4/5 700/4/5 699/4/5
f 703/4/5 702/4/5 701/4/5
f 703/4/5 701/4/5 700/4/5
f 704/4/5 702/4/5 703/4/5
f 705/4/5 702/4/5 704/4/5
f 706/4/5 702/4/5 705/4/5
f 708/4/5 705/4/5 704/4/5
f 709/4/5 705/4/5 708/4/5
f 711/4/5 708/4/5 707/4/5
f 711/4/5 710/4/5 709/4/5
f 711/4/5 709/4/5 708/4/5
f 712/4/5 710/4/5 711/4/5
f 713/4/5 710/4/5 712/4/5
f 714/4/5 710/4/5 713/4/5
f 716/4/5 713/4/5 712/4/5
f 717/4/5 713/4/5 716/4/5
f 719/4/5 716/4/5 715/4/5
f 719/4/5 718/4/5 717/4/5
f 719/4/5 717/4/5 716/4/5
f 720/4/5 718/4/5 719/4/5
f 721/4/5 718/4/5 720/4/5
f 722/4/5 718/4/5 721/4/5
f 723/4/5 721/4/5 720/4/5
f 724/4/5 721/4/5 723/4/5
f 725/4/6 726/4/6 729/4/6
f 729/4/6 726/4/6 730/4/6
f 727/4/6 728/4/6 731/4/6
f 731/4/6 728/4/6 732/4/6
f 733/4/6 734/4/6 737/4/6
f 737/4/6 734/4/6 738/4/6
f 735/4/6 736/4/6 739/4/6
f 739/4/6 736/4/6 740/4/6
f 741/4/6 742/4/6 745/4/6
f 745/4/6 742/4/6 746/4/6
f 743/4/6 744/4/6 747/4/6
f 747/4/6 744/4/6 748/4/6
f 749/4/6 750/4/6 753/4/6
f 753/4/6 750/4/6 754/4/6
f 751/4/6 752/4/6 755/4/6
f 755/4/6 752/4/6 756/4/6
f 757/4/6 758/4/6 760/4/6
f 760/4/6 758/4/6 761/4/6
f 759/4/6 760/4/6 763/4/6
f 761/4/6 762/4/6 763/4/6
f 760/4/6 761/4/6 763/4/6
f 763/4/6 762/4/6 764/4/6
f 764/4/6 762/4/6 765/4/6
f 765/4/6 762/4/6 766/4/6
f 764/4/6 765/4/6 767/4/6
f 767/4/6 765/4/6 768/4/6
f 769/4/6 770/4/6 772/4/6
f 772/4/6 770/4/6 773/4/6
f 772/4/6 773/4/6 775/4/6
f 773/4/6 774/4/6 775/4/6
f 771/4/6 772/4/6 775/4/6
f 775/4/6 774/4/6 776/4/6
f 776/4/6 774/4/6 777/4/6
f 777/4/6 774/4/6 778/4/6
f 776/4/6 777/4/6 779/4/6
f 779/4/6 777/4/6 780/4/6
f 781/4/6 782/4/6 785/4/6
f 785/4/6 782/4/6 786/4/6
f 783/4/6 784/4/6 787/4/6
f 787/4/6 784/4/6 788/4/6
f 789/4/6 790/4/6 793/4/6
f 793/4/6 790/4/6 794/4/6
f 791/4/6 792/4/6 795/4/6
f 795/4/6 792/4/6 796/4/6
f 797/3/6 798/3/6 799/3/6
f 797/3/6 799/3/6 801/3/6
f 799/3/6 800/3/6 801/3/6
f 801/3/6 800/3/6 802/3/6
f 802/3/6 800/3/6 803/3/6
f 802/3/6 803/3/6 810/3/6
f 803/3/6 804/3/6 810/3/6
f 810/3/6 804/3/6 811/3/6
f 811/3/6 804/3/6 812/3/6
f 807/3/6 808/3/6 813/3/6
f 806/3/6 807/3/6 813/3/6
f 805/3/6 806/3/6 813/3/6
f 813/3/6 808/3/6 814/3/6
f 814/3/6 808/3/6 815/3/6
f 815/3/6 808/3/6 816/3/6
f 810/3/6 811/3/6 817/3/6
f 809/3/6 810/3/6 817/3/6
f 817/3/6 811/3/6 818/3/6
f 809/3/6 817/3/6 819/3/6
f 819/3/6 817/3/6 820/3/6
f 821/4/6 822/4/6 827/4/6
f 827/4/6 822/4/6 828/4/6
f 825/4/6 826/4/6 829/4/6
f 829/4/6 826/4/6 830/4/6
f 830/4/6 826/4/6 831/4/6
f 825/4/6 829/4/6 832/4/6
f 831/4/6 826/4/6 834/4/6
f 823/3/6 824/3/6 835/3/6
f 835/3/6 824/3/6 836/3/6
f 833/4/6 834/4/6 837/4/6
f 832/4/6 833/4/6 837/4/6
f 825/4/6 832/4/6 837/4/6
f 834/4/6 826/4/6 838/4/6
f 837/4/6 834/4/6 838/4/6
f 839/4/6 840/4/6 841/4/6
f 841/4/6 840/4/6 842/4/6
f 843/3/6 844/3/6 845/3/6
f 845/3/6 844/3/6 846/3/6
f 847/4/6 848/4/6 850/4/6
f 850/4/6 848/4/6 851/4/6
f 853/1/6 854/1/6 855/1/6
f 855/1/6 854/1/6 856/1/6
f 849/4/6 850/4/6 857/4/6
f 850/4/6 851/4/6 857/4/6
f 851/4/6 852/4/6 857/4/6
f 857/4/6 852/4/6 858/4/6
f 858/4/6 852/4/6 859/4/6
f 859/4/6 852/4/6 860/4/6
f 858/4/6 859/4/6 861/4/6
f 861/4/6 859/4/6 862/4/6
f 863/3/6 864/3/6 865/3/6
f 865/3/6 864/3/6 866/3/6
