# MagicaVoxel @ Ephtracy

# group
o 

# material
mtllib pink-star.mtl
usemtl palette

# normals
vn -1 0 0
vn 1 0 0
vn 0 0 1
vn 0 0 -1
vn 0 -1 0
vn 0 1 0

# texcoords
vt 0.00195313 0.5
vt 0.0175781 0.5
vt 0.0214844 0.5
vt 0.123047 0.5

# verts
v -0.5 0.7 0.2
v -0.5 0.7 -0.4
v -0.5 0.8 0.2
v -0.5 0.8 -0.4
v -0.4 0 0.1
v -0.4 0 -0.3
v -0.4 0.1 0.2
v -0.4 0.1 0.1
v -0.4 0.1 -0.3
v -0.4 0.1 -0.4
v -0.4 0.2 0.2
v -0.4 0.2 -0.4
v -0.4 0.6 0.2
v -0.4 0.6 -0.4
v -0.4 0.7 0.2
v -0.4 0.7 -0.4
v -0.3 0.2 0.2
v -0.3 0.2 -0.4
v -0.3 0.3 0.2
v -0.3 0.3 -0.4
v -0.3 0.5 0.2
v -0.3 0.5 -0.4
v -0.3 0.6 0.2
v -0.3 0.6 -0.4
v -0.2 0.3 0.2
v -0.2 0.3 -0.4
v -0.2 0.5 0.2
v -0.2 0.5 -0.4
v -0.2 0.8 0.2
v -0.2 0.8 -0.4
v -0.2 0.9 0.2
v -0.2 0.9 -0.4
v -0.1 0.4 0.3
v -0.1 0.4 0.2
v -0.1 0.4 -0.4
v -0.1 0.4 -0.5
v -0.1 0.7 0.3
v -0.1 0.7 0.2
v -0.1 0.7 -0.4
v -0.1 0.7 -0.5
v -0.1 0.9 0.1
v -0.1 0.9 -0.3
v -0.1 1.1 0.1
v -0.1 1.1 -0.3
v 0.2 0.1 0.2
v 0.2 0.1 -0.4
v 0.2 0.2 0.2
v 0.2 0.2 -0.4
v 0.3 0 0.1
v 0.3 0 -0.3
v 0.3 0.1 0.1
v 0.3 0.1 -0.3
v -0.3 0 0.1
v -0.3 0 -0.3
v -0.3 0.1 0.1
v -0.3 0.1 -0.3
v -0.2 0.1 0.2
v -0.2 0.1 -0.4
v -0.2 0.2 0.2
v -0.2 0.2 -0.4
v 0.1 0.4 0.3
v 0.1 0.4 0.2
v 0.1 0.4 -0.4
v 0.1 0.4 -0.5
v 0.1 0.7 0.3
v 0.1 0.7 0.2
v 0.1 0.7 -0.4
v 0.1 0.7 -0.5
v 0.1 0.9 0.1
v 0.1 0.9 -0.3
v 0.1 1.1 0.1
v 0.1 1.1 -0.3
v 0.2 0.3 0.2
v 0.2 0.3 -0.4
v 0.2 0.5 0.2
v 0.2 0.5 -0.4
v 0.2 0.8 0.2
v 0.2 0.8 -0.4
v 0.2 0.9 0.2
v 0.2 0.9 -0.4
v 0.3 0.2 0.2
v 0.3 0.2 -0.4
v 0.3 0.3 0.2
v 0.3 0.3 -0.4
v 0.3 0.5 0.2
v 0.3 0.5 -0.4
v 0.3 0.6 0.2
v 0.3 0.6 -0.4
v 0.4 0 0.1
v 0.4 0 -0.3
v 0.4 0.1 0.2
v 0.4 0.1 0.1
v 0.4 0.1 -0.3
v 0.4 0.1 -0.4
v 0.4 0.2 0.2
v 0.4 0.2 -0.4
v 0.4 0.6 0.2
v 0.4 0.6 -0.4
v 0.4 0.7 0.2
v 0.4 0.7 -0.4
v 0.5 0.7 0.2
v 0.5 0.7 -0.4
v 0.5 0.8 0.2
v 0.5 0.8 -0.4
v -0.1 0.4 0.3
v -0.1 0.7 0.3
v 0.1 0.4 0.3
v 0.1 0.7 0.3
v -0.5 0.7 0.2
v -0.5 0.8 0.2
v -0.4 0.1 0.2
v -0.4 0.2 0.2
v -0.4 0.6 0.2
v -0.4 0.7 0.2
v -0.3 0.2 0.2
v -0.3 0.3 0.2
v -0.3 0.5 0.2
v -0.3 0.6 0.2
v -0.2 0.1 0.2
v -0.2 0.2 0.2
v -0.2 0.3 0.2
v -0.2 0.5 0.2
v -0.2 0.8 0.2
v -0.2 0.9 0.2
v -0.1 0.4 0.2
v -0.1 0.7 0.2
v 0.1 0.4 0.2
v 0.1 0.7 0.2
v 0.2 0.1 0.2
v 0.2 0.2 0.2
v 0.2 0.3 0.2
v 0.2 0.5 0.2
v 0.2 0.8 0.2
v 0.2 0.9 0.2
v 0.3 0.2 0.2
v 0.3 0.3 0.2
v 0.3 0.5 0.2
v 0.3 0.6 0.2
v 0.4 0.1 0.2
v 0.4 0.2 0.2
v 0.4 0.6 0.2
v 0.4 0.7 0.2
v 0.5 0.7 0.2
v 0.5 0.8 0.2
v -0.4 0 0.1
v -0.4 0.1 0.1
v -0.3 0 0.1
v -0.3 0.1 0.1
v -0.1 0.9 0.1
v -0.1 1.1 0.1
v 0.1 0.9 0.1
v 0.1 1.1 0.1
v 0.3 0 0.1
v 0.3 0.1 0.1
v 0.4 0 0.1
v 0.4 0.1 0.1
v -0.4 0 -0.3
v -0.4 0.1 -0.3
v -0.3 0 -0.3
v -0.3 0.1 -0.3
v -0.1 0.9 -0.3
v -0.1 1.1 -0.3
v 0.1 0.9 -0.3
v 0.1 1.1 -0.3
v 0.3 0 -0.3
v 0.3 0.1 -0.3
v 0.4 0 -0.3
v 0.4 0.1 -0.3
v -0.5 0.7 -0.4
v -0.5 0.8 -0.4
v -0.4 0.1 -0.4
v -0.4 0.2 -0.4
v -0.4 0.6 -0.4
v -0.4 0.7 -0.4
v -0.3 0.2 -0.4
v -0.3 0.3 -0.4
v -0.3 0.5 -0.4
v -0.3 0.6 -0.4
v -0.2 0.1 -0.4
v -0.2 0.2 -0.4
v -0.2 0.3 -0.4
v -0.2 0.5 -0.4
v -0.2 0.8 -0.4
v -0.2 0.9 -0.4
v -0.1 0.4 -0.4
v -0.1 0.7 -0.4
v 0.1 0.4 -0.4
v 0.1 0.7 -0.4
v 0.2 0.1 -0.4
v 0.2 0.2 -0.4
v 0.2 0.3 -0.4
v 0.2 0.5 -0.4
v 0.2 0.8 -0.4
v 0.2 0.9 -0.4
v 0.3 0.2 -0.4
v 0.3 0.3 -0.4
v 0.3 0.5 -0.4
v 0.3 0.6 -0.4
v 0.4 0.1 -0.4
v 0.4 0.2 -0.4
v 0.4 0.6 -0.4
v 0.4 0.7 -0.4
v 0.5 0.7 -0.4
v 0.5 0.8 -0.4
v -0.1 0.4 -0.5
v -0.1 0.7 -0.5
v 0.1 0.4 -0.5
v 0.1 0.7 -0.5
v -0.4 0 0.1
v -0.3 0 0.1
v 0.3 0 0.1
v 0.4 0 0.1
v -0.4 0 -0.3
v -0.3 0 -0.3
v 0.3 0 -0.3
v 0.4 0 -0.3
v -0.4 0.1 0.2
v -0.2 0.1 0.2
v 0.2 0.1 0.2
v 0.4 0.1 0.2
v -0.4 0.1 0.1
v -0.3 0.1 0.1
v 0.3 0.1 0.1
v 0.4 0.1 0.1
v -0.4 0.1 -0.3
v -0.3 0.1 -0.3
v 0.3 0.1 -0.3
v 0.4 0.1 -0.3
v -0.4 0.1 -0.4
v -0.2 0.1 -0.4
v 0.2 0.1 -0.4
v 0.4 0.1 -0.4
v -0.2 0.2 0.2
v 0.2 0.2 0.2
v -0.2 0.2 -0.4
v 0.2 0.2 -0.4
v -0.1 0.4 0.3
v 0.1 0.4 0.3
v -0.1 0.4 0.2
v 0.1 0.4 0.2
v -0.1 0.4 -0.4
v 0.1 0.4 -0.4
v -0.1 0.4 -0.5
v 0.1 0.4 -0.5
v -0.3 0.5 0.2
v -0.2 0.5 0.2
v 0.2 0.5 0.2
v 0.3 0.5 0.2
v -0.3 0.5 -0.4
v -0.2 0.5 -0.4
v 0.2 0.5 -0.4
v 0.3 0.5 -0.4
v -0.4 0.6 0.2
v -0.3 0.6 0.2
v 0.3 0.6 0.2
v 0.4 0.6 0.2
v -0.4 0.6 -0.4
v -0.3 0.6 -0.4
v 0.3 0.6 -0.4
v 0.4 0.6 -0.4
v -0.5 0.7 0.2
v -0.4 0.7 0.2
v 0.4 0.7 0.2
v 0.5 0.7 0.2
v -0.5 0.7 -0.4
v -0.4 0.7 -0.4
v 0.4 0.7 -0.4
v 0.5 0.7 -0.4
v -0.4 0.2 0.2
v -0.3 0.2 0.2
v 0.3 0.2 0.2
v 0.4 0.2 0.2
v -0.4 0.2 -0.4
v -0.3 0.2 -0.4
v 0.3 0.2 -0.4
v 0.4 0.2 -0.4
v -0.3 0.3 0.2
v -0.2 0.3 0.2
v 0.2 0.3 0.2
v 0.3 0.3 0.2
v -0.3 0.3 -0.4
v -0.2 0.3 -0.4
v 0.2 0.3 -0.4
v 0.3 0.3 -0.4
v -0.1 0.7 0.3
v 0.1 0.7 0.3
v -0.1 0.7 0.2
v 0.1 0.7 0.2
v -0.1 0.7 -0.4
v 0.1 0.7 -0.4
v -0.1 0.7 -0.5
v 0.1 0.7 -0.5
v -0.5 0.8 0.2
v -0.2 0.8 0.2
v 0.2 0.8 0.2
v 0.5 0.8 0.2
v -0.5 0.8 -0.4
v -0.2 0.8 -0.4
v 0.2 0.8 -0.4
v 0.5 0.8 -0.4
v -0.2 0.9 0.2
v 0.2 0.9 0.2
v -0.1 0.9 0.1
v 0.1 0.9 0.1
v -0.1 0.9 -0.3
v 0.1 0.9 -0.3
v -0.2 0.9 -0.4
v 0.2 0.9 -0.4
v -0.1 1.1 0.1
v 0.1 1.1 0.1
v -0.1 1.1 -0.3
v 0.1 1.1 -0.3

# faces
f 3/4/1 2/4/1 1/4/1
f 4/4/1 2/4/1 3/4/1
f 8/4/1 6/4/1 5/4/1
f 9/4/1 6/4/1 8/4/1
f 11/4/1 8/4/1 7/4/1
f 11/4/1 10/4/1 9/4/1
f 11/4/1 9/4/1 8/4/1
f 12/4/1 10/4/1 11/4/1
f 15/4/1 14/4/1 13/4/1
f 16/4/1 14/4/1 15/4/1
f 19/4/1 18/4/1 17/4/1
f 20/4/1 18/4/1 19/4/1
f 23/4/1 22/4/1 21/4/1
f 24/4/1 22/4/1 23/4/1
f 27/4/1 26/4/1 25/4/1
f 28/4/1 26/4/1 27/4/1
f 31/4/1 30/4/1 29/4/1
f 32/4/1 30/4/1 31/4/1
f 37/1/1 34/1/1 33/1/1
f 38/1/1 34/1/1 37/1/1
f 39/1/1 36/1/1 35/1/1
f 40/1/1 36/1/1 39/1/1
f 43/4/1 42/4/1 41/4/1
f 44/4/1 42/4/1 43/4/1
f 47/4/1 46/4/1 45/4/1
f 48/4/1 46/4/1 47/4/1
f 51/4/1 50/4/1 49/4/1
f 52/4/1 50/4/1 51/4/1
f 53/4/2 54/4/2 55/4/2
f 55/4/2 54/4/2 56/4/2
f 57/4/2 58/4/2 59/4/2
f 59/4/2 58/4/2 60/4/2
f 61/1/2 62/1/2 65/1/2
f 65/1/2 62/1/2 66/1/2
f 63/1/2 64/1/2 67/1/2
f 67/1/2 64/1/2 68/1/2
f 69/4/2 70/4/2 71/4/2
f 71/4/2 70/4/2 72/4/2
f 73/4/2 74/4/2 75/4/2
f 75/4/2 74/4/2 76/4/2
f 77/4/2 78/4/2 79/4/2
f 79/4/2 78/4/2 80/4/2
f 81/4/2 82/4/2 83/4/2
f 83/4/2 82/4/2 84/4/2
f 85/4/2 86/4/2 87/4/2
f 87/4/2 86/4/2 88/4/2
f 89/4/2 90/4/2 92/4/2
f 92/4/2 90/4/2 93/4/2
f 91/4/2 92/4/2 95/4/2
f 93/4/2 94/4/2 95/4/2
f 92/4/2 93/4/2 95/4/2
f 95/4/2 94/4/2 96/4/2
f 97/4/2 98/4/2 99/4/2
f 99/4/2 98/4/2 100/4/2
f 101/4/2 102/4/2 103/4/2
f 103/4/2 102/4/2 104/4/2
f 107/1/3 106/1/3 105/1/3
f 108/1/3 106/1/3 107/1/3
f 114/4/3 110/4/3 109/4/3
f 115/4/3 112/4/3 111/4/3
f 118/4/3 114/4/3 113/4/3
f 119/4/3 116/4/3 115/4/3
f 119/4/3 115/4/3 111/4/3
f 120/4/3 116/4/3 119/4/3
f 121/4/3 116/4/3 120/4/3
f 122/4/3 118/4/3 117/4/3
f 123/4/3 110/4/3 114/4/3
f 123/4/3 114/4/3 118/4/3
f 123/4/3 118/4/3 122/4/3
f 125/4/3 121/4/3 120/4/3
f 125/4/3 124/4/3 123/4/3
f 125/4/3 123/4/3 122/4/3
f 125/4/3 122/4/3 121/4/3
f 126/4/3 124/4/3 125/4/3
f 127/4/3 125/4/3 120/4/3
f 128/4/3 124/4/3 126/4/3
f 130/4/3 127/4/3 120/4/3
f 130/4/3 128/4/3 127/4/3
f 131/4/3 128/4/3 130/4/3
f 132/4/3 128/4/3 131/4/3
f 133/4/3 124/4/3 128/4/3
f 133/4/3 128/4/3 132/4/3
f 134/4/3 124/4/3 133/4/3
f 135/4/3 130/4/3 129/4/3
f 135/4/3 131/4/3 130/4/3
f 136/4/3 131/4/3 135/4/3
f 137/4/3 133/4/3 132/4/3
f 138/4/3 133/4/3 137/4/3
f 139/4/3 135/4/3 129/4/3
f 140/4/3 135/4/3 139/4/3
f 141/4/3 133/4/3 138/4/3
f 142/4/3 133/4/3 141/4/3
f 143/4/3 133/4/3 142/4/3
f 144/4/3 133/4/3 143/4/3
f 147/4/3 146/4/3 145/4/3
f 148/4/3 146/4/3 147/4/3
f 151/4/3 150/4/3 149/4/3
f 152/4/3 150/4/3 151/4/3
f 155/4/3 154/4/3 153/4/3
f 156/4/3 154/4/3 155/4/3
f 157/4/4 158/4/4 159/4/4
f 159/4/4 158/4/4 160/4/4
f 161/4/4 162/4/4 163/4/4
f 163/4/4 162/4/4 164/4/4
f 165/4/4 166/4/4 167/4/4
f 167/4/4 166/4/4 168/4/4
f 169/4/4 170/4/4 174/4/4
f 171/4/4 172/4/4 175/4/4
f 173/4/4 174/4/4 178/4/4
f 175/4/4 176/4/4 179/4/4
f 171/4/4 175/4/4 179/4/4
f 179/4/4 176/4/4 180/4/4
f 180/4/4 176/4/4 181/4/4
f 177/4/4 178/4/4 182/4/4
f 174/4/4 170/4/4 183/4/4
f 178/4/4 174/4/4 183/4/4
f 182/4/4 178/4/4 183/4/4
f 180/4/4 181/4/4 185/4/4
f 183/4/4 184/4/4 185/4/4
f 182/4/4 183/4/4 185/4/4
f 181/4/4 182/4/4 185/4/4
f 185/4/4 184/4/4 186/4/4
f 180/4/4 185/4/4 187/4/4
f 186/4/4 184/4/4 188/4/4
f 180/4/4 187/4/4 190/4/4
f 187/4/4 188/4/4 190/4/4
f 190/4/4 188/4/4 191/4/4
f 191/4/4 188/4/4 192/4/4
f 188/4/4 184/4/4 193/4/4
f 192/4/4 188/4/4 193/4/4
f 193/4/4 184/4/4 194/4/4
f 189/4/4 190/4/4 195/4/4
f 190/4/4 191/4/4 195/4/4
f 195/4/4 191/4/4 196/4/4
f 192/4/4 193/4/4 197/4/4
f 197/4/4 193/4/4 198/4/4
f 189/4/4 195/4/4 199/4/4
f 199/4/4 195/4/4 200/4/4
f 198/4/4 193/4/4 201/4/4
f 201/4/4 193/4/4 202/4/4
f 202/4/4 193/4/4 203/4/4
f 203/4/4 193/4/4 204/4/4
f 205/1/4 206/1/4 207/1/4
f 207/1/4 206/1/4 208/1/4
f 213/4/5 210/4/5 209/4/5
f 214/4/5 210/4/5 213/4/5
f 215/4/5 212/4/5 211/4/5
f 216/4/5 212/4/5 215/4/5
f 221/4/5 218/4/5 217/4/5
f 222/4/5 218/4/5 221/4/5
f 223/4/5 220/4/5 219/4/5
f 224/4/5 220/4/5 223/4/5
f 226/4/5 218/4/5 222/4/5
f 227/4/5 223/4/5 219/4/5
f 229/4/5 226/4/5 225/4/5
f 230/4/5 218/4/5 226/4/5
f 230/4/5 226/4/5 229/4/5
f 231/4/5 228/4/5 227/4/5
f 231/4/5 227/4/5 219/4/5
f 232/4/5 228/4/5 231/4/5
f 235/4/5 234/4/5 233/4/5
f 236/4/5 234/4/5 235/4/5
f 239/1/5 238/1/5 237/1/5
f 240/1/5 238/1/5 239/1/5
f 243/1/5 242/1/5 241/1/5
f 244/1/5 242/1/5 243/1/5
f 249/4/5 246/4/5 245/4/5
f 250/4/5 246/4/5 249/4/5
f 251/4/5 248/4/5 247/4/5
f 252/4/5 248/4/5 251/4/5
f 257/4/5 254/4/5 253/4/5
f 258/4/5 254/4/5 257/4/5
f 259/4/5 256/4/5 255/4/5
f 260/4/5 256/4/5 259/4/5
f 265/4/5 262/4/5 261/4/5
f 266/4/5 262/4/5 265/4/5
f 267/4/5 264/4/5 263/4/5
f 268/4/5 264/4/5 267/4/5
f 269/4/6 270/4/6 273/4/6
f 273/4/6 270/4/6 274/4/6
f 271/4/6 272/4/6 275/4/6
f 275/4/6 272/4/6 276/4/6
f 277/4/6 278/4/6 281/4/6
f 281/4/6 278/4/6 282/4/6
f 279/4/6 280/4/6 283/4/6
f 283/4/6 280/4/6 284/4/6
f 285/1/6 286/1/6 287/1/6
f 287/1/6 286/1/6 288/1/6
f 289/1/6 290/1/6 291/1/6
f 291/1/6 290/1/6 292/1/6
f 293/4/6 294/4/6 297/4/6
f 297/4/6 294/4/6 298/4/6
f 295/4/6 296/4/6 299/4/6
f 299/4/6 296/4/6 300/4/6
f 301/4/6 302/4/6 303/4/6
f 303/4/6 302/4/6 304/4/6
f 301/4/6 303/4/6 305/4/6
f 304/4/6 302/4/6 306/4/6
f 301/4/6 305/4/6 307/4/6
f 305/4/6 306/4/6 307/4/6
f 306/4/6 302/4/6 308/4/6
f 307/4/6 306/4/6 308/4/6
f 309/4/6 310/4/6 311/4/6
f 311/4/6 310/4/6 312/4/6
