# MagicaVoxel @ Ephtracy

# group
o 

# material
mtllib pink-arrow.mtl
usemtl palette

# normals
vn -1 0 0
vn 1 0 0
vn 0 0 1
vn 0 0 -1
vn 0 -1 0
vn 0 1 0

# texcoords
vt 0.00195313 0.5
vt 0.0214844 0.5
vt 0.123047 0.5

# verts
v -0.5 0.4 0.2
v -0.5 0.4 -2.98023e-08
v -0.5 0.5 0.2
v -0.5 0.5 -2.98023e-08
v -0.4 0.3 0.2
v -0.4 0.3 -2.98023e-08
v -0.4 0.4 0.2
v -0.4 0.4 -2.98023e-08
v -0.4 0.5 0.2
v -0.4 0.5 -2.98023e-08
v -0.4 0.6 0.2
v -0.4 0.6 -2.98023e-08
v -0.3 0.4 0.3
v -0.3 0.4 0.2
v -0.3 0.4 -2.98023e-08
v -0.3 0.4 -0.1
v -0.3 0.5 0.3
v -0.3 0.5 0.2
v -0.3 0.5 -2.98023e-08
v -0.3 0.5 -0.1
v 0.2 0 0.2
v 0.2 0 -2.98023e-08
v 0.2 0.3 0.2
v 0.2 0.3 -2.98023e-08
v 0.2 0.6 0.2
v 0.2 0.6 -2.98023e-08
v 0.2 0.9 0.2
v 0.2 0.9 -2.98023e-08
v 0.3 0.3 0.3
v 0.3 0.3 0.2
v 0.3 0.3 -2.98023e-08
v 0.3 0.3 -0.1
v 0.3 0.4 0.3
v 0.3 0.4 0.2
v 0.3 0.4 -2.98023e-08
v 0.3 0.4 -0.1
v 0.3 0.5 0.3
v 0.3 0.5 0.2
v 0.3 0.5 -2.98023e-08
v 0.3 0.5 -0.1
v 0.3 0.6 0.3
v 0.3 0.6 0.2
v 0.3 0.6 -2.98023e-08
v 0.3 0.6 -0.1
v 0.3 0 0.2
v 0.3 0 -2.98023e-08
v 0.3 0.1 0.2
v 0.3 0.1 -2.98023e-08
v 0.3 0.8 0.2
v 0.3 0.8 -2.98023e-08
v 0.3 0.9 0.2
v 0.3 0.9 -2.98023e-08
v 0.4 0.1 0.2
v 0.4 0.1 -2.98023e-08
v 0.4 0.2 0.2
v 0.4 0.2 -2.98023e-08
v 0.4 0.3 0.3
v 0.4 0.3 0.2
v 0.4 0.3 -2.98023e-08
v 0.4 0.3 -0.1
v 0.4 0.4 0.3
v 0.4 0.4 0.2
v 0.4 0.4 -2.98023e-08
v 0.4 0.4 -0.1
v 0.4 0.5 0.3
v 0.4 0.5 0.2
v 0.4 0.5 -2.98023e-08
v 0.4 0.5 -0.1
v 0.4 0.6 0.3
v 0.4 0.6 0.2
v 0.4 0.6 -2.98023e-08
v 0.4 0.6 -0.1
v 0.4 0.7 0.2
v 0.4 0.7 -2.98023e-08
v 0.4 0.8 0.2
v 0.4 0.8 -2.98023e-08
v 0.5 0.2 0.2
v 0.5 0.2 -2.98023e-08
v 0.5 0.3 0.2
v 0.5 0.3 -2.98023e-08
v 0.5 0.4 0.3
v 0.5 0.4 0.2
v 0.5 0.4 -2.98023e-08
v 0.5 0.4 -0.1
v 0.5 0.5 0.3
v 0.5 0.5 0.2
v 0.5 0.5 -2.98023e-08
v 0.5 0.5 -0.1
v 0.5 0.6 0.2
v 0.5 0.6 -2.98023e-08
v 0.5 0.7 0.2
v 0.5 0.7 -2.98023e-08
v 0.6 0.3 0.2
v 0.6 0.3 -2.98023e-08
v 0.6 0.4 0.2
v 0.6 0.4 -2.98023e-08
v 0.6 0.5 0.2
v 0.6 0.5 -2.98023e-08
v 0.6 0.6 0.2
v 0.6 0.6 -2.98023e-08
v 0.7 0.4 0.2
v 0.7 0.4 -2.98023e-08
v 0.7 0.5 0.2
v 0.7 0.5 -2.98023e-08
v -0.3 0.4 0.3
v -0.3 0.5 0.3
v 0.3 0.3 0.3
v 0.3 0.4 0.3
v 0.3 0.5 0.3
v 0.3 0.6 0.3
v 0.4 0.3 0.3
v 0.4 0.4 0.3
v 0.4 0.5 0.3
v 0.4 0.6 0.3
v 0.5 0.4 0.3
v 0.5 0.5 0.3
v -0.5 0.4 0.2
v -0.5 0.5 0.2
v -0.4 0.3 0.2
v -0.4 0.4 0.2
v -0.4 0.5 0.2
v -0.4 0.6 0.2
v -0.3 0.4 0.2
v -0.3 0.5 0.2
v 0.2 0 0.2
v 0.2 0.3 0.2
v 0.2 0.6 0.2
v 0.2 0.9 0.2
v 0.3 0 0.2
v 0.3 0.1 0.2
v 0.3 0.3 0.2
v 0.3 0.4 0.2
v 0.3 0.5 0.2
v 0.3 0.6 0.2
v 0.3 0.8 0.2
v 0.3 0.9 0.2
v 0.4 0.1 0.2
v 0.4 0.2 0.2
v 0.4 0.3 0.2
v 0.4 0.4 0.2
v 0.4 0.5 0.2
v 0.4 0.6 0.2
v 0.4 0.7 0.2
v 0.4 0.8 0.2
v 0.5 0.2 0.2
v 0.5 0.3 0.2
v 0.5 0.4 0.2
v 0.5 0.5 0.2
v 0.5 0.6 0.2
v 0.5 0.7 0.2
v 0.6 0.3 0.2
v 0.6 0.4 0.2
v 0.6 0.5 0.2
v 0.6 0.6 0.2
v 0.7 0.4 0.2
v 0.7 0.5 0.2
v -0.5 0.4 -2.98023e-08
v -0.5 0.5 -2.98023e-08
v -0.4 0.3 -2.98023e-08
v -0.4 0.4 -2.98023e-08
v -0.4 0.5 -2.98023e-08
v -0.4 0.6 -2.98023e-08
v -0.3 0.4 -2.98023e-08
v -0.3 0.5 -2.98023e-08
v 0.2 0 -2.98023e-08
v 0.2 0.3 -2.98023e-08
v 0.2 0.6 -2.98023e-08
v 0.2 0.9 -2.98023e-08
v 0.3 0 -2.98023e-08
v 0.3 0.1 -2.98023e-08
v 0.3 0.3 -2.98023e-08
v 0.3 0.4 -2.98023e-08
v 0.3 0.5 -2.98023e-08
v 0.3 0.6 -2.98023e-08
v 0.3 0.8 -2.98023e-08
v 0.3 0.9 -2.98023e-08
v 0.4 0.1 -2.98023e-08
v 0.4 0.2 -2.98023e-08
v 0.4 0.3 -2.98023e-08
v 0.4 0.4 -2.98023e-08
v 0.4 0.5 -2.98023e-08
v 0.4 0.6 -2.98023e-08
v 0.4 0.7 -2.98023e-08
v 0.4 0.8 -2.98023e-08
v 0.5 0.2 -2.98023e-08
v 0.5 0.3 -2.98023e-08
v 0.5 0.4 -2.98023e-08
v 0.5 0.5 -2.98023e-08
v 0.5 0.6 -2.98023e-08
v 0.5 0.7 -2.98023e-08
v 0.6 0.3 -2.98023e-08
v 0.6 0.4 -2.98023e-08
v 0.6 0.5 -2.98023e-08
v 0.6 0.6 -2.98023e-08
v 0.7 0.4 -2.98023e-08
v 0.7 0.5 -2.98023e-08
v -0.3 0.4 -0.1
v -0.3 0.5 -0.1
v 0.3 0.3 -0.1
v 0.3 0.4 -0.1
v 0.3 0.5 -0.1
v 0.3 0.6 -0.1
v 0.4 0.3 -0.1
v 0.4 0.4 -0.1
v 0.4 0.5 -0.1
v 0.4 0.6 -0.1
v 0.5 0.4 -0.1
v 0.5 0.5 -0.1
v 0.2 0 0.2
v 0.3 0 0.2
v 0.2 0 -2.98023e-08
v 0.3 0 -2.98023e-08
v 0.3 0.1 0.2
v 0.4 0.1 0.2
v 0.3 0.1 -2.98023e-08
v 0.4 0.1 -2.98023e-08
v 0.4 0.2 0.2
v 0.5 0.2 0.2
v 0.4 0.2 -2.98023e-08
v 0.5 0.2 -2.98023e-08
v 0.3 0.3 0.3
v 0.4 0.3 0.3
v -0.4 0.3 0.2
v 0.2 0.3 0.2
v 0.3 0.3 0.2
v 0.4 0.3 0.2
v 0.5 0.3 0.2
v 0.6 0.3 0.2
v -0.4 0.3 -2.98023e-08
v 0.2 0.3 -2.98023e-08
v 0.3 0.3 -2.98023e-08
v 0.4 0.3 -2.98023e-08
v 0.5 0.3 -2.98023e-08
v 0.6 0.3 -2.98023e-08
v 0.3 0.3 -0.1
v 0.4 0.3 -0.1
v -0.3 0.4 0.3
v 0.3 0.4 0.3
v 0.4 0.4 0.3
v 0.5 0.4 0.3
v -0.5 0.4 0.2
v -0.4 0.4 0.2
v -0.3 0.4 0.2
v 0.3 0.4 0.2
v 0.4 0.4 0.2
v 0.5 0.4 0.2
v 0.6 0.4 0.2
v 0.7 0.4 0.2
v -0.5 0.4 -2.98023e-08
v -0.4 0.4 -2.98023e-08
v -0.3 0.4 -2.98023e-08
v 0.3 0.4 -2.98023e-08
v 0.4 0.4 -2.98023e-08
v 0.5 0.4 -2.98023e-08
v 0.6 0.4 -2.98023e-08
v 0.7 0.4 -2.98023e-08
v -0.3 0.4 -0.1
v 0.3 0.4 -0.1
v 0.4 0.4 -0.1
v 0.5 0.4 -0.1
v -0.3 0.5 0.3
v 0.3 0.5 0.3
v 0.4 0.5 0.3
v 0.5 0.5 0.3
v -0.5 0.5 0.2
v -0.4 0.5 0.2
v -0.3 0.5 0.2
v 0.3 0.5 0.2
v 0.4 0.5 0.2
v 0.5 0.5 0.2
v 0.6 0.5 0.2
v 0.7 0.5 0.2
v -0.5 0.5 -2.98023e-08
v -0.4 0.5 -2.98023e-08
v -0.3 0.5 -2.98023e-08
v 0.3 0.5 -2.98023e-08
v 0.4 0.5 -2.98023e-08
v 0.5 0.5 -2.98023e-08
v 0.6 0.5 -2.98023e-08
v 0.7 0.5 -2.98023e-08
v -0.3 0.5 -0.1
v 0.3 0.5 -0.1
v 0.4 0.5 -0.1
v 0.5 0.5 -0.1
v 0.3 0.6 0.3
v 0.4 0.6 0.3
v -0.4 0.6 0.2
v 0.2 0.6 0.2
v 0.3 0.6 0.2
v 0.4 0.6 0.2
v 0.5 0.6 0.2
v 0.6 0.6 0.2
v -0.4 0.6 -2.98023e-08
v 0.2 0.6 -2.98023e-08
v 0.3 0.6 -2.98023e-08
v 0.4 0.6 -2.98023e-08
v 0.5 0.6 -2.98023e-08
v 0.6 0.6 -2.98023e-08
v 0.3 0.6 -0.1
v 0.4 0.6 -0.1
v 0.4 0.7 0.2
v 0.5 0.7 0.2
v 0.4 0.7 -2.98023e-08
v 0.5 0.7 -2.98023e-08
v 0.3 0.8 0.2
v 0.4 0.8 0.2
v 0.3 0.8 -2.98023e-08
v 0.4 0.8 -2.98023e-08
v 0.2 0.9 0.2
v 0.3 0.9 0.2
v 0.2 0.9 -2.98023e-08
v 0.3 0.9 -2.98023e-08

# faces
f 3/3/1 2/3/1 1/3/1
f 4/3/1 2/3/1 3/3/1
f 7/3/1 6/3/1 5/3/1
f 8/3/1 6/3/1 7/3/1
f 11/3/1 10/3/1 9/3/1
f 12/3/1 10/3/1 11/3/1
f 17/1/1 14/1/1 13/1/1
f 18/1/1 14/1/1 17/1/1
f 19/1/1 16/1/1 15/1/1
f 20/1/1 16/1/1 19/1/1
f 23/3/1 22/3/1 21/3/1
f 24/3/1 22/3/1 23/3/1
f 27/3/1 26/3/1 25/3/1
f 28/3/1 26/3/1 27/3/1
f 33/1/1 30/1/1 29/1/1
f 34/1/1 30/1/1 33/1/1
f 35/1/1 32/1/1 31/1/1
f 36/1/1 32/1/1 35/1/1
f 41/1/1 38/1/1 37/1/1
f 42/1/1 38/1/1 41/1/1
f 43/1/1 40/1/1 39/1/1
f 44/1/1 40/1/1 43/1/1
f 45/3/2 46/3/2 47/3/2
f 47/3/2 46/3/2 48/3/2
f 49/3/2 50/3/2 51/3/2
f 51/3/2 50/3/2 52/3/2
f 53/3/2 54/3/2 55/3/2
f 55/3/2 54/3/2 56/3/2
f 57/1/2 58/1/2 61/1/2
f 61/1/2 58/1/2 62/1/2
f 59/1/2 60/1/2 63/1/2
f 63/1/2 60/1/2 64/1/2
f 65/1/2 66/1/2 69/1/2
f 69/1/2 66/1/2 70/1/2
f 67/1/2 68/1/2 71/1/2
f 71/1/2 68/1/2 72/1/2
f 73/3/2 74/3/2 75/3/2
f 75/3/2 74/3/2 76/3/2
f 77/3/2 78/3/2 79/3/2
f 79/3/2 78/3/2 80/3/2
f 81/1/2 82/1/2 85/1/2
f 85/1/2 82/1/2 86/1/2
f 83/1/2 84/1/2 87/1/2
f 87/1/2 84/1/2 88/1/2
f 89/3/2 90/3/2 91/3/2
f 91/3/2 90/3/2 92/3/2
f 93/3/2 94/3/2 95/3/2
f 95/3/2 94/3/2 96/3/2
f 97/3/2 98/3/2 99/3/2
f 99/3/2 98/3/2 100/3/2
f 101/3/2 102/3/2 103/3/2
f 103/3/2 102/3/2 104/3/2
f 108/1/3 106/1/3 105/1/3
f 109/1/3 106/1/3 108/1/3
f 111/1/3 108/1/3 107/1/3
f 111/1/3 110/1/3 109/1/3
f 111/1/3 109/1/3 108/1/3
f 112/1/3 110/1/3 111/1/3
f 113/1/3 110/1/3 112/1/3
f 114/1/3 110/1/3 113/1/3
f 115/1/3 113/1/3 112/1/3
f 116/1/3 113/1/3 115/1/3
f 120/3/3 118/3/3 117/3/3
f 121/3/3 118/3/3 120/3/3
f 123/3/3 120/3/3 119/3/3
f 123/3/3 122/3/3 121/3/3
f 123/3/3 121/3/3 120/3/3
f 124/3/3 122/3/3 123/3/3
f 126/3/3 123/3/3 119/3/3
f 127/3/3 122/3/3 124/3/3
f 129/3/3 126/3/3 125/3/3
f 130/3/3 126/3/3 129/3/3
f 131/3/3 123/3/3 126/3/3
f 131/3/3 126/3/3 130/3/3
f 132/3/3 123/3/3 131/3/3
f 133/3/3 128/3/3 127/3/3
f 133/3/3 127/3/3 124/3/3
f 134/3/3 128/3/3 133/3/3
f 135/3/3 128/3/3 134/3/3
f 136/3/3 128/3/3 135/3/3
f 137/3/3 131/3/3 130/3/3
f 138/3/3 131/3/3 137/3/3
f 139/3/3 131/3/3 138/3/3
f 142/3/3 135/3/3 134/3/3
f 143/3/3 135/3/3 142/3/3
f 144/3/3 135/3/3 143/3/3
f 145/3/3 140/3/3 139/3/3
f 145/3/3 139/3/3 138/3/3
f 146/3/3 140/3/3 145/3/3
f 147/3/3 140/3/3 146/3/3
f 148/3/3 143/3/3 142/3/3
f 148/3/3 142/3/3 141/3/3
f 149/3/3 143/3/3 148/3/3
f 150/3/3 143/3/3 149/3/3
f 151/3/3 147/3/3 146/3/3
f 151/3/3 149/3/3 148/3/3
f 151/3/3 148/3/3 147/3/3
f 152/3/3 149/3/3 151/3/3
f 153/3/3 149/3/3 152/3/3
f 154/3/3 149/3/3 153/3/3
f 155/3/3 153/3/3 152/3/3
f 156/3/3 153/3/3 155/3/3
f 157/3/4 158/3/4 160/3/4
f 160/3/4 158/3/4 161/3/4
f 159/3/4 160/3/4 163/3/4
f 161/3/4 162/3/4 163/3/4
f 160/3/4 161/3/4 163/3/4
f 163/3/4 162/3/4 164/3/4
f 159/3/4 163/3/4 166/3/4
f 164/3/4 162/3/4 167/3/4
f 165/3/4 166/3/4 169/3/4
f 169/3/4 166/3/4 170/3/4
f 166/3/4 163/3/4 171/3/4
f 170/3/4 166/3/4 171/3/4
f 171/3/4 163/3/4 172/3/4
f 167/3/4 168/3/4 173/3/4
f 164/3/4 167/3/4 173/3/4
f 173/3/4 168/3/4 174/3/4
f 174/3/4 168/3/4 175/3/4
f 175/3/4 168/3/4 176/3/4
f 170/3/4 171/3/4 177/3/4
f 177/3/4 171/3/4 178/3/4
f 178/3/4 171/3/4 179/3/4
f 174/3/4 175/3/4 182/3/4
f 182/3/4 175/3/4 183/3/4
f 183/3/4 175/3/4 184/3/4
f 179/3/4 180/3/4 185/3/4
f 178/3/4 179/3/4 185/3/4
f 185/3/4 180/3/4 186/3/4
f 186/3/4 180/3/4 187/3/4
f 182/3/4 183/3/4 188/3/4
f 181/3/4 182/3/4 188/3/4
f 188/3/4 183/3/4 189/3/4
f 189/3/4 183/3/4 190/3/4
f 186/3/4 187/3/4 191/3/4
f 188/3/4 189/3/4 191/3/4
f 187/3/4 188/3/4 191/3/4
f 191/3/4 189/3/4 192/3/4
f 192/3/4 189/3/4 193/3/4
f 193/3/4 189/3/4 194/3/4
f 192/3/4 193/3/4 195/3/4
f 195/3/4 193/3/4 196/3/4
f 197/1/4 198/1/4 200/1/4
f 200/1/4 198/1/4 201/1/4
f 199/1/4 200/1/4 203/1/4
f 201/1/4 202/1/4 203/1/4
f 200/1/4 201/1/4 203/1/4
f 203/1/4 202/1/4 204/1/4
f 204/1/4 202/1/4 205/1/4
f 205/1/4 202/1/4 206/1/4
f 204/1/4 205/1/4 207/1/4
f 207/1/4 205/1/4 208/1/4
f 211/3/5 210/3/5 209/3/5
f 212/3/5 210/3/5 211/3/5
f 215/3/5 214/3/5 213/3/5
f 216/3/5 214/3/5 215/3/5
f 219/3/5 218/3/5 217/3/5
f 220/3/5 218/3/5 219/3/5
f 225/1/5 222/1/5 221/1/5
f 226/1/5 222/1/5 225/1/5
f 229/3/5 224/3/5 223/3/5
f 230/3/5 224/3/5 229/3/5
f 233/3/5 228/3/5 227/3/5
f 234/3/5 228/3/5 233/3/5
f 235/1/5 232/1/5 231/1/5
f 236/1/5 232/1/5 235/1/5
f 243/1/5 238/1/5 237/1/5
f 244/1/5 238/1/5 243/1/5
f 245/1/5 240/1/5 239/1/5
f 246/1/5 240/1/5 245/1/5
f 249/3/5 242/3/5 241/3/5
f 250/3/5 242/3/5 249/3/5
f 255/3/5 248/3/5 247/3/5
f 256/3/5 248/3/5 255/3/5
f 257/1/5 252/1/5 251/1/5
f 258/1/5 252/1/5 257/1/5
f 259/1/5 254/1/5 253/1/5
f 260/1/5 254/1/5 259/1/5
f 261/1/6 262/1/6 267/1/6
f 267/1/6 262/1/6 268/1/6
f 263/1/6 264/1/6 269/1/6
f 269/1/6 264/1/6 270/1/6
f 265/3/6 266/3/6 273/3/6
f 273/3/6 266/3/6 274/3/6
f 271/3/6 272/3/6 279/3/6
f 279/3/6 272/3/6 280/3/6
f 275/1/6 276/1/6 281/1/6
f 281/1/6 276/1/6 282/1/6
f 277/1/6 278/1/6 283/1/6
f 283/1/6 278/1/6 284/1/6
f 285/1/6 286/1/6 289/1/6
f 289/1/6 286/1/6 290/1/6
f 287/3/6 288/3/6 293/3/6
f 293/3/6 288/3/6 294/3/6
f 291/3/6 292/3/6 297/3/6
f 297/3/6 292/3/6 298/3/6
f 295/1/6 296/1/6 299/1/6
f 299/1/6 296/1/6 300/1/6
f 301/3/6 302/3/6 303/3/6
f 303/3/6 302/3/6 304/3/6
f 305/3/6 306/3/6 307/3/6
f 307/3/6 306/3/6 308/3/6
f 309/3/6 310/3/6 311/3/6
f 311/3/6 310/3/6 312/3/6
